<?xml version="1.0" standalone="no"?>
<!DOCTYPE svg PUBLIC "-//W3C//DTD SVG 1.1//EN" "http://www.w3.org/Graphics/SVG/1.1/DTD/svg11.dtd" >
<svg xmlns="http://www.w3.org/2000/svg" xmlns:xlink="http://www.w3.org/1999/xlink" version="1.1">
<metadata></metadata>
<defs>
<font id="martel_sansextralight" horiz-adv-x="1024" >
<font-face units-per-em="2048" ascent="1638" descent="-410" />
<missing-glyph horiz-adv-x="512" />
<glyph unicode="&#xfb01;" horiz-adv-x="1341" d="M154 0zM154 975v49l174 37v129q0 449 344 448q49 0 98 -16l-22 -90q-37 10 -76 10q-125 0 -179.5 -86t-54.5 -270v-121h328v-90h-328v-975h-110v975h-174zM983 1556q0 33 23.5 57.5t55.5 24.5q35 0 58.5 -23.5t23.5 -58.5q0 -31 -24.5 -54t-57.5 -23q-32 0 -55.5 23.5 t-23.5 53.5zM1007 0v1065h111v-1065h-111z" />
<glyph unicode="&#xfb02;" horiz-adv-x="1306" d="M154 0zM154 975v49l174 37v129q0 449 344 448q49 0 98 -16l-22 -90q-37 10 -76 10q-125 0 -179.5 -86t-54.5 -270v-121h328v-90h-328v-975h-110v975h-174zM991 0v1638h110v-1638h-110z" />
<glyph horiz-adv-x="0" />
<glyph unicode="&#xd;" horiz-adv-x="0" />
<glyph unicode=" "  horiz-adv-x="512" />
<glyph unicode="&#x09;" horiz-adv-x="512" />
<glyph unicode="&#xa0;" horiz-adv-x="512" />
<glyph unicode="!" horiz-adv-x="512" d="M170 66q0 35 25.5 61.5t60.5 26.5q37 0 62.5 -27t25.5 -61q0 -35 -25.5 -60.5t-62.5 -25.5q-35 0 -60.5 25.5t-25.5 60.5zM180 1393h131l-20 -1037h-70z" />
<glyph unicode="&#x22;" horiz-adv-x="839" d="M190 1014zM190 1518h132l-13 -504h-86zM518 1518h132l-13 -504h-86z" />
<glyph unicode="#" horiz-adv-x="1239" d="M47 412l27 90h225l121 389h-223l28 90h221l127 412h91l-127 -412h340l127 412h90l-127 -412h225l-27 -90h-225l-121 -389h223l-28 -90h-221l-127 -412h-91l127 412h-340l-126 -412h-91l127 412h-225zM389 502h340l121 389h-340z" />
<glyph unicode="$" d="M68 172l63 88q139 -131 367 -139v541q-119 37 -194 74.5t-126 107t-51 184.5q0 152 104.5 238t266.5 94v184h108v-188q102 -8 187.5 -44t164.5 -98l-61 -86q-125 109 -291 132v-515q107 -34 178.5 -74t118.5 -108.5t47 -175.5q0 -141 -96 -236.5t-248 -117.5v-191h-108 v185q-141 2 -239.5 37.5t-190.5 107.5zM238 1030q0 -100 66.5 -153.5t193.5 -96.5v486q-113 -8 -186.5 -68.5t-73.5 -167.5zM606 129q105 18 168.5 87t63.5 171q0 96 -60.5 149.5t-171.5 90.5v-498z" />
<glyph unicode="%" horiz-adv-x="1566" d="M14 0zM14 971q0 207 74 321q74 115 219 115q147 0 221 -115t74 -321q0 -207 -74 -322t-221 -114q-145 -1 -219 114t-74 322zM104 971q0 -178 53 -270q52 -91 150 -91q205 1 205 361t-205 360q-98 0 -150 -91t-53 -269zM338 2l819 1417l72 -43l-820 -1417zM965 414 q0 207 73 321q74 115 219 115q147 0 222 -115q74 -115 73 -321q0 -207 -73 -322q-74 -115 -222 -115q-145 0 -219 115t-73 322zM1055 414q0 -178 52 -270q52 -91 150 -91q205 1 205 361t-205 360q-98 0 -150 -91t-52 -269z" />
<glyph unicode="&#x26;" horiz-adv-x="1462" d="M102 332q0 139 80 241.5t277 202.5q-98 111 -135 181.5t-37 162.5q0 129 86 215t248 86q152 0 236.5 -79.5t84.5 -194.5q0 -133 -74.5 -227.5t-246.5 -171.5l364 -406q143 209 250 571l96 -26q-109 -389 -278 -619l77 -86q51 -55 83 -78.5t69 -23.5q39 0 76 10l22 -90 q-49 -16 -98 -16q-70 0 -115 27.5t-120 111.5l-60 65q-197 -219 -444 -219q-137 0 -236.5 50.5t-152 132t-52.5 180.5zM217 342q0 -74 37 -137.5t110.5 -102.5t178.5 -39q211 0 381 197l-404 447q-121 -63 -186.5 -119t-91 -113t-25.5 -133zM401 1120q0 -78 33 -140 t123 -163q147 66 208.5 141.5t61.5 188.5q0 74 -53 127t-153 53q-109 0 -164.5 -59.5t-55.5 -147.5z" />
<glyph unicode="'" horiz-adv-x="512" d="M190 1518h132l-13 -504h-86z" />
<glyph unicode="(" horiz-adv-x="593" d="M117 602q0 268 98 490.5t250 369.5l61 -51q-133 -127 -216 -347t-83 -462t83 -462t216 -347l-61 -51q-152 147 -250 369.5t-98 490.5z" />
<glyph unicode=")" horiz-adv-x="593" d="M68 -207q133 127 216 347t83 462t-83 462t-216 347l61 51q152 -147 250 -369.5t98 -490.5t-98 -490.5t-250 -369.5z" />
<glyph unicode="*" horiz-adv-x="954" d="M70 1057l34 104l338 -125l-20 357h110l-16 -361l334 129l35 -104l-348 -96l225 -277l-88 -66l-199 302l-194 -302l-88 66l223 283z" />
<glyph unicode="+" d="M68 500v90h399v399h90v-399h399v-90h-399v-400h-90v400h-399z" />
<glyph unicode="," horiz-adv-x="512" d="M88 -240q131 84 131 238q0 66 -20 139l104 13q16 -70 16 -123q0 -109 -50 -195t-136 -131z" />
<glyph unicode="-" horiz-adv-x="512" d="M41 502v90h430v-90h-430z" />
<glyph unicode="." horiz-adv-x="514" d="M170 66q0 35 25.5 61.5t60.5 26.5q37 0 62.5 -27t25.5 -61q0 -35 -25.5 -60.5t-62.5 -25.5q-35 0 -60.5 25.5t-25.5 60.5z" />
<glyph unicode="/" horiz-adv-x="671" d="M-16 -483l587 1933h117l-590 -1933h-114z" />
<glyph unicode="0" d="M51 709q0 313 117 512.5t344 199.5q229 0 345 -199.5t116 -512.5q0 -326 -117 -533t-344 -207t-344 207t-117 533zM166 709q0 -281 84 -463.5t262 -182.5t262 182.5t84 463.5q0 268 -84 443t-262 175t-262 -175t-84 -443z" />
<glyph unicode="1" d="M190 1071l342 322h93v-1299h290v-94h-694v94h291v1149l-256 -242z" />
<glyph unicode="2" d="M49 1171q94 127 199.5 186.5t238.5 59.5q186 0 294 -105.5t108 -291.5q0 -147 -88 -303t-312 -373l-251 -246v-4h704v-94h-872v72l360 350q193 186 268.5 327.5t75.5 272.5q0 141 -78 221t-209 80q-109 0 -189.5 -46t-180.5 -163z" />
<glyph unicode="3" horiz-adv-x="1026" d="M37 150l61 67q90 -98 173 -133t208 -35q154 0 254.5 94.5t100.5 243.5q0 129 -88.5 207t-243.5 78q-96 0 -203 -33l-23 88q170 43 269.5 84t156 110.5t56.5 182.5q0 94 -63.5 153.5t-172.5 59.5q-197 0 -375 -209l-67 57q88 121 204.5 183.5t237.5 62.5q158 0 254 -84 t96 -225q0 -242 -270 -359q94 -6 173 -51t126 -124t47 -179q0 -119 -57 -218t-165 -157.5t-247 -58.5q-150 0 -253 42t-189 153z" />
<glyph unicode="4" horiz-adv-x="1021" d="M35 403v74l651 916h92v-895h230v-95h-230v-403h-112v403h-631zM170 498h496v698l-289 -405z" />
<glyph unicode="5" horiz-adv-x="1026" d="M57 150l62 67q90 -96 172 -132t198 -36q164 0 264.5 97.5t100.5 261.5q0 145 -88 230t-244 85q-160 0 -321 -72l-49 29l55 713h725v-97h-625l-35 -526q51 20 119 33.5t131 13.5q140 0 240 -52t153.5 -145.5t53.5 -211.5q0 -127 -58.5 -230.5t-167 -163t-254.5 -59.5 q-143 0 -245.5 42t-186.5 153z" />
<glyph unicode="6" d="M68 514q0 334 205.5 568.5t570.5 338.5l39 -88q-297 -88 -473.5 -257t-216.5 -421q63 76 156 119t198 43q125 0 218 -56t142 -148.5t49 -192.5q0 -121 -53 -224.5t-153.5 -165t-237.5 -61.5q-131 0 -231.5 63.5t-156.5 185.5t-56 296zM182 506q2 -215 91 -329t239 -114 q160 0 245 101.5t85 255.5q0 129 -79 216t-216 87q-231 0 -365 -217z" />
<glyph unicode="7" d="M45 1298v95h934v-72l-780 -1321h-127l774 1294v4h-801z" />
<glyph unicode="8" d="M72 340q0 260 301 383q-143 66 -201.5 149.5t-58.5 202.5q0 150 103 248t296 98q129 0 219 -46t135 -122.5t45 -167.5q0 -131 -62.5 -214t-213.5 -148q164 -64 240.5 -157t76.5 -230q0 -160 -111.5 -263.5t-328.5 -103.5q-145 0 -244.5 50.5t-147.5 135.5t-48 185z M186 340q0 -115 80 -196t246 -81t246 78t80 195q0 135 -82 207.5t-254 130.5l-19 6q-139 -45 -218 -133t-79 -207zM227 1075q0 -121 74 -192.5t217 -118.5q152 49 215.5 128t63.5 193q0 100 -72 171t-213 71t-213 -72.5t-72 -179.5z" />
<glyph unicode="9" d="M68 971q0 121 53 224t153.5 164.5t237.5 61.5q131 0 231.5 -63.5t156.5 -185t56 -295.5q0 -334 -205.5 -568.5t-570.5 -339.5l-39 88q297 88 473.5 257t216.5 421q-63 -76 -156 -119t-198 -43q-125 0 -218 56.5t-142 148.5t-49 193zM182 971q0 -129 79 -216t216 -87 q232 0 365 217q-2 215 -91 328.5t-239 113.5q-160 0 -245 -101.5t-85 -254.5z" />
<glyph unicode=":" horiz-adv-x="512" d="M170 66q0 35 25.5 61.5t60.5 26.5q37 0 62.5 -27t25.5 -61q0 -35 -25.5 -60.5t-62.5 -25.5q-35 0 -60.5 25.5t-25.5 60.5zM170 885q0 35 25.5 61.5t60.5 26.5q37 0 62.5 -26.5t25.5 -61.5t-25.5 -60.5t-62.5 -25.5q-35 0 -60.5 25.5t-25.5 60.5z" />
<glyph unicode=";" horiz-adv-x="512" d="M88 -240q129 82 129 228q0 59 -18 129l104 12q14 -55 14 -115q0 -104 -49 -186t-135 -127zM170 885q0 35 25.5 61.5t60.5 26.5q37 0 62.5 -26.5t25.5 -61.5t-25.5 -60.5t-62.5 -25.5q-35 0 -60.5 25.5t-25.5 60.5z" />
<glyph unicode="&#x3c;" d="M68 506v80l888 444v-102l-768 -383l768 -383v-103z" />
<glyph unicode="=" d="M68 305v90h888v-90h-888zM68 694v90h888v-90h-888z" />
<glyph unicode="&#x3e;" d="M68 59v103l768 383l-768 383v102l888 -446v-80z" />
<glyph unicode="?" horiz-adv-x="882" d="M145 1305v90q319 0 461 -106.5t142 -274.5q0 -305 -429 -402l-8 -256h-69l-13 326q217 41 312.5 114.5t95.5 219.5q0 127 -105.5 208t-386.5 81zM190 66q0 35 26 61.5t60 26.5q37 0 63 -27t26 -61q0 -35 -26 -60.5t-63 -25.5q-34 0 -60 25.5t-26 60.5z" />
<glyph unicode="@" horiz-adv-x="1652" d="M123 516q0 211 91 382t258 268.5t382 97.5q188 0 343 -77t244 -215t89 -315q0 -158 -53.5 -269.5t-139.5 -168.5t-184 -57q-63 0 -107.5 29.5t-52.5 84.5q-143 -115 -254 -114q-86 0 -139 48t-53 124t51 124t137 79.5t256 76.5v76q0 72 -27.5 117t-103.5 45 q-70 0 -122 -29.5t-122 -117.5l-67 63q137 174 309 174q125 0 179.5 -62.5t54.5 -191.5v-385q0 -57 69 -57q70 0 132.5 44t101.5 136t39 229q0 156 -81 275t-213 183.5t-284 64.5q-190 0 -334.5 -84t-223.5 -234.5t-79 -345.5q0 -176 83 -316.5t222.5 -219t298.5 -78.5 q119 0 221.5 35.5t215.5 115.5l47 -67q-125 -92 -234.5 -131t-251.5 -39q-178 0 -338.5 88t-260 248.5t-99.5 365.5zM647 334q0 -84 94 -84q55 0 113.5 29.5t136.5 89.5v159q-131 -35 -202.5 -61.5t-106.5 -57t-35 -75.5z" />
<glyph unicode="A" horiz-adv-x="1288" d="M51 0l543 1411h98l545 -1411h-117l-184 479h-588l-184 -479h-113zM383 573h516l-258 674z" />
<glyph unicode="B" horiz-adv-x="1245" d="M246 0v1393h430q197 0 301 -98.5t104 -262.5q0 -106 -58 -186t-167 -113q139 -31 213 -122t74 -224q0 -111 -53.5 -199t-159 -138t-254.5 -50h-430zM360 94h316q168 0 260 80t92 215q0 145 -90 220t-262 75h-316v-590zM360 778h316q139 0 215 70t76 186q0 131 -74 197.5 t-217 66.5h-316v-520z" />
<glyph unicode="C" horiz-adv-x="1429" d="M123 698q0 197 78 362t235.5 263t384.5 98q143 0 268 -52t209 -148l-77 -70q-66 82 -175.5 128t-224.5 46q-186 0 -317 -82t-198.5 -224t-67.5 -323q0 -182 64.5 -326.5t189 -226.5t301.5 -82q274 0 464 238l70 -68q-94 -117 -228 -190.5t-306 -73.5q-220 0 -370.5 100.5 t-225 266.5t-74.5 364z" />
<glyph unicode="D" horiz-adv-x="1470" d="M246 0v1393h450q209 0 355.5 -90.5t221.5 -248t75 -356.5q0 -205 -75 -362.5t-221.5 -246.5t-355.5 -89h-450zM360 94h336q256 0 396.5 162t140.5 440q0 274 -140.5 438t-396.5 164h-336v-1204z" />
<glyph unicode="E" horiz-adv-x="1185" d="M246 0v1393h776v-95h-662v-514h580v-94h-580v-596h703v-94h-817z" />
<glyph unicode="F" horiz-adv-x="1083" d="M246 0v1393h776v-95h-662v-534h580v-94h-580v-670h-114z" />
<glyph unicode="G" horiz-adv-x="1462" d="M123 698q0 197 78 362t235.5 263t384.5 98q143 0 268 -52t209 -148l-77 -70q-66 82 -175.5 128t-224.5 46q-186 0 -317 -82t-198.5 -224t-67.5 -323q0 -182 64.5 -326.5t189 -226.5t301.5 -82q250 0 385 68v508h110v-555q-74 -51 -202 -83t-293 -32q-219 0 -370 100.5 t-225.5 266.5t-74.5 364z" />
<glyph unicode="H" horiz-adv-x="1546" d="M246 0v1393h114v-609h826v609h114v-1393h-114v690h-826v-690h-114z" />
<glyph unicode="I" horiz-adv-x="606" d="M246 0v1393h114v-1393h-114z" />
<glyph unicode="J" horiz-adv-x="606" d="M-86 -485l23 94q37 -10 75 -10q125 0 179.5 85t54.5 267v1442h114v-1446q0 -217 -85 -333t-263 -116q-49 1 -98 17z" />
<glyph unicode="K" horiz-adv-x="1351" d="M246 0v1393h114v-1393h-114zM414 727v41l633 625h137l-649 -639l745 -754h-141z" />
<glyph unicode="L" horiz-adv-x="1144" d="M246 0v1393h114v-1299h703v-94h-817z" />
<glyph unicode="M" horiz-adv-x="1757" d="M246 0v1393h94l539 -762l538 762h94v-1393h-114v1182l-486 -686h-65l-486 686v-1182h-114z" />
<glyph unicode="N" horiz-adv-x="1546" d="M246 0v1393h94l846 -1188v1188h114v-1393l-94 -2l-846 1184v-1182h-114z" />
<glyph unicode="O" horiz-adv-x="1548" d="M123 692q0 201 74.5 367t221 264t355.5 98q207 0 354.5 -98t222 -263t74.5 -364q0 -203 -74.5 -368.5t-222 -264t-354.5 -98.5q-209 0 -355.5 97.5t-221 263.5t-74.5 366zM238 694q0 -182 62 -325.5t183 -225.5t291 -82t291 82t183.5 225.5t62.5 325.5q0 180 -62.5 322.5 t-183.5 225.5t-291 83t-291 -83t-183 -225.5t-62 -322.5z" />
<glyph unicode="P" horiz-adv-x="1204" d="M246 0v1393h430q149 0 254.5 -50.5t159 -138.5t53.5 -198q0 -178 -121 -285t-346 -107h-316v-614h-114zM360 709h316q172 0 262 74.5t90 220.5q0 135 -92 214.5t-260 79.5h-316v-589z" />
<glyph unicode="Q" horiz-adv-x="1548" d="M123 692q0 201 74.5 367t221 264t355.5 98q207 0 354.5 -98t222 -263t74.5 -364q0 -236 -99 -418t-284 -262l191 -223q152 -176 266 -176q90 0 172 68l33 -86q-106 -88 -215 -88q-168 0 -342 206l-221 263q-82 -14 -152 -15q-209 0 -355.5 97.5t-221 263.5t-74.5 366z M238 694q0 -182 62 -325.5t183 -225.5t291 -82t291 82t183.5 225.5t62.5 325.5q0 180 -62.5 322.5t-183.5 225.5t-291 83t-291 -83t-183 -225.5t-62 -322.5z" />
<glyph unicode="R" horiz-adv-x="1343" d="M246 0v1393h430q143 0 243.5 -48.5t151.5 -131.5t51 -187q0 -150 -94 -246t-272 -114l485 -666h-131l-477 655h-273v-655h-114zM360 750h316q162 0 247 68.5t85 205.5q0 125 -87 199.5t-245 74.5h-316v-548z" />
<glyph unicode="S" horiz-adv-x="1189" d="M123 111l63 90q150 -139 416 -140q154 0 252 80t98 219q0 82 -47 136.5t-115.5 86t-187.5 74.5q-135 47 -219 88t-142.5 117t-58.5 193q0 178 119 272t299 94q133 0 236.5 -35.5t197.5 -109.5l-61 -88q-78 68 -173 102.5t-200 34.5q-131 0 -218 -67.5t-87 -200.5 q0 -82 47 -136.5t115.5 -86t187.5 -72.5q139 -49 222 -90t141.5 -117t58.5 -195t-61.5 -209t-167 -138t-236.5 -48q-164 0 -272.5 35t-206.5 111z" />
<glyph unicode="T" horiz-adv-x="1290" d="M82 1298v95h1126v-95h-506v-1298h-114v1298h-506z" />
<glyph unicode="U" horiz-adv-x="1505" d="M225 506v887h115v-885q0 -207 107.5 -327t306.5 -120q197 0 304 120t107 327v885h115v-883q0 -160 -59.5 -283t-178 -192.5t-288.5 -69.5t-289 69.5t-179.5 191.5t-60.5 280z" />
<glyph unicode="V" horiz-adv-x="1329" d="M72 1393h116l480 -1248l477 1248h112l-542 -1411h-99z" />
<glyph unicode="W" horiz-adv-x="2023" d="M72 1393h116l357 -1241l416 1241h86l417 -1241l375 1241h113l-441 -1411h-98l-409 1218l-412 -1218h-98z" />
<glyph unicode="X" horiz-adv-x="1406" d="M92 0l533 723l-492 670h139l433 -586l432 586h139l-492 -670l531 -723h-141l-469 641l-472 -641h-141z" />
<glyph unicode="Y" horiz-adv-x="1286" d="M72 1393h133l438 -723l442 723h129l-514 -822v-571h-114v565z" />
<glyph unicode="Z" horiz-adv-x="1329" d="M164 0v63l885 1235h-859v95h988v-80l-871 -1219h899v-94h-1042z" />
<glyph unicode="[" horiz-adv-x="593" d="M150 -260v1683h294v-69l-184 -21v-1503l184 -20v-70h-294z" />
<glyph unicode="\" horiz-adv-x="671" d="M-16 1450h116l588 -1933h-115z" />
<glyph unicode="]" horiz-adv-x="593" d="M150 -184l184 14v1503l-184 15v75h294v-1683h-294v76z" />
<glyph unicode="^" d="M244 348l215 430h106l215 -430h-90l-178 340l-178 -340h-90z" />
<glyph unicode="_" d="M0 -395h1024v-90h-1024v90z" />
<glyph unicode="`" d="M354 1638h117l199 -430h-90z" />
<glyph unicode="a" horiz-adv-x="1085" d="M106 219q0 94 53.5 158.5t151 108.5t254.5 89l191 54v110q0 121 -41 196t-152 75q-109 0 -190.5 -44t-186.5 -173l-77 59q203 254 452 254q170 0 237.5 -85t67.5 -284v-594q0 -45 15.5 -64.5t48.5 -19.5q35 0 90 25l14 -86q-70 -29 -119 -29q-74 0 -116.5 35t-42.5 125v4 q-205 -166 -369 -166q-125 0 -203 71t-78 181zM217 219q0 -84 48 -122t124 -38q82 0 165 42t202 132v306l-152 -43q-211 -59 -299 -121t-88 -156z" />
<glyph unicode="b" horiz-adv-x="1157" d="M205 -2v1640h110v-657q141 127 324 127q123 0 217 -64.5t146.5 -186.5t52.5 -290q0 -195 -64.5 -331t-181.5 -204.5t-268 -68.5q-139 0 -260 70l-27 -35h-49zM315 109q86 -53 224 -54q202 0 301.5 140.5t99.5 371.5q0 156 -43 256.5t-111.5 144.5t-146.5 44 q-94 0 -165 -29t-159 -98v-776z" />
<glyph unicode="c" horiz-adv-x="1044" d="M102 530q0 158 57.5 288t172 209t280.5 79q104 0 197.5 -40t155.5 -114l-66 -82q-51 66 -128 105t-159 39q-186 0 -290.5 -135.5t-104.5 -346.5q0 -213 98.5 -347t276.5 -134q199 0 336 182l57 -69q-70 -90 -168 -147.5t-225 -57.5q-160 0 -270.5 78t-165 208t-54.5 285z " />
<glyph unicode="d" horiz-adv-x="1157" d="M102 506q0 195 64.5 329t180.5 202.5t269 68.5q123 0 226 -47v579h110v-1638h-90l-12 98q-150 -139 -332 -139q-123 0 -217 65.5t-146.5 188.5t-52.5 293zM217 506q0 -158 43 -259.5t111.5 -146.5t146.5 -45q94 0 163 31t161 102v777q-86 49 -224 49q-203 0 -302 -138.5 t-99 -369.5z" />
<glyph unicode="e" horiz-adv-x="1087" d="M102 530q0 158 54.5 288t165 209t270.5 79q102 0 190 -44t141.5 -128t53.5 -197q0 -41 -10 -98h-742q-8 -47 -8 -107q0 -213 98.5 -347t276.5 -134q199 0 336 182l57 -69q-70 -90 -168 -147.5t-225 -57.5q-160 0 -270.5 78t-165 208t-54.5 285zM244 729h620v10 q0 90 -40 152.5t-102.5 92.5t-129.5 30q-131 0 -220 -77t-128 -208z" />
<glyph unicode="f" horiz-adv-x="786" d="M154 975v49l174 37v129q0 448 342 448h2q49 0 98 -16l-22 -90q-37 10 -76 10q-125 0 -179.5 -86t-54.5 -270v-121h328v-90h-328v-975h-110v975h-174z" />
<glyph unicode="g" horiz-adv-x="1085" d="M82 -231q0 90 41 152.5t137 139.5q-74 20 -100.5 63.5t-26.5 98.5q0 59 35 111.5t123 134.5q-70 47 -105.5 123t-35.5 164q0 150 94 250t272 100q109 0 191 -41h352v-90l-260 18q84 -92 84 -233q0 -96 -41 -176t-123 -128t-203 -48q-74 0 -141 20q-80 -68 -108.5 -104.5 t-28.5 -83.5q0 -51 37.5 -72t119.5 -21h367q133 0 205.5 -69.5t72.5 -183.5q0 -111 -74.5 -202t-205.5 -143.5t-293 -52.5q-207 0 -296 77t-89 196zM186 -225q0 -100 74 -143.5t207 -43.5t240.5 43t169 112t61.5 138q0 164 -180 164h-363h-22q-94 -72 -140.5 -131 t-46.5 -139zM264 758q0 -113 66.5 -185.5t185.5 -72.5t185.5 72.5t66.5 185.5t-66.5 184.5t-185.5 71.5q-117 0 -184.5 -73t-67.5 -183z" />
<glyph unicode="h" horiz-adv-x="1177" d="M205 0v1638h110v-694q201 162 385 162q162 0 222.5 -83t60.5 -243v-780h-111v776q0 121 -43 177.5t-145 56.5q-84 0 -173 -41t-196 -129v-840h-110z" />
<glyph unicode="i" horiz-adv-x="555" d="M197 1556q0 33 23.5 57.5t55.5 24.5q35 0 58.5 -23.5t23.5 -58.5q0 -31 -24.5 -54t-57.5 -23q-32 0 -55.5 23.5t-23.5 53.5zM221 0v1065h111v-1065h-111z" />
<glyph unicode="j" horiz-adv-x="520" d="M-127 -485l23 90q37 -10 75 -11q125 0 179.5 86.5t54.5 270.5v1114h110v-1118q0 -449 -344 -449q-49 1 -98 17zM186 1556q0 33 23.5 57.5t56.5 24.5q35 0 58.5 -23.5t23.5 -58.5q0 -31 -24.5 -54t-57.5 -23t-56.5 23.5t-23.5 53.5z" />
<glyph unicode="k" horiz-adv-x="1085" d="M205 0v1638h110v-1638h-110zM379 563v41l436 461h129l-452 -475l532 -590h-137z" />
<glyph unicode="l" horiz-adv-x="520" d="M205 0v1638h110v-1638h-110z" />
<glyph unicode="m" horiz-adv-x="1763" d="M205 0v1065h90l16 -125q199 166 369 166q109 0 168 -45t80 -129q203 174 379 174q149 0 205.5 -83t56.5 -243v-780h-111v776q0 121 -39 177.5t-129 56.5q-78 0 -157.5 -41t-192.5 -131q2 -18 2 -58v-780h-111v776q0 121 -38.5 177.5t-128.5 56.5q-76 0 -158 -41 t-191 -129v-840h-110z" />
<glyph unicode="n" horiz-adv-x="1177" d="M205 0v1065h90l16 -125q197 166 389 166q162 0 222.5 -83t60.5 -243v-780h-111v776q0 121 -43 177.5t-145 56.5q-84 0 -173 -41t-196 -129v-840h-110z" />
<glyph unicode="o" horiz-adv-x="1183" d="M102 530q0 158 54.5 288t165 209t270.5 79t270.5 -78t164.5 -208t54 -285q0 -158 -54 -289t-164.5 -209t-270.5 -78t-270.5 78t-165 208t-54.5 285zM217 532q0 -213 98.5 -347t276.5 -134t276.5 134t98.5 347q0 211 -99.5 346.5t-275.5 135.5t-275.5 -135.5t-99.5 -346.5 z" />
<glyph unicode="p" horiz-adv-x="1157" d="M205 -485v1556h90l12 -98q66 61 150 97t182 36q123 0 217 -64.5t146.5 -186.5t52.5 -290q0 -197 -64.5 -333t-180.5 -204.5t-269 -68.5q-123 0 -226 51v-495h-110zM315 106q90 -55 224 -55q202 0 301.5 140.5t99.5 373.5q0 156 -43 256.5t-111.5 144.5t-146.5 44 q-94 0 -165 -29t-159 -98v-777z" />
<glyph unicode="q" horiz-adv-x="1157" d="M102 502q0 195 64.5 331t181.5 204.5t268 68.5q139 0 261 -70l26 35h49v-1556h-110v573q-143 -129 -324 -129q-123 0 -217 64.5t-146.5 187.5t-52.5 291zM217 502q0 -158 43 -258.5t111.5 -144.5t146.5 -44q94 0 164 30t160 99v777q-86 53 -224 53q-203 0 -302 -140.5 t-99 -371.5z" />
<glyph unicode="r" horiz-adv-x="761" d="M205 0v1065h90l20 -156q101 107 193 152t192 45v-100q-96 0 -185 -44t-200 -163v-799h-110z" />
<glyph unicode="s" horiz-adv-x="946" d="M102 74l50 86q119 -109 327 -109q115 0 186.5 60.5t71.5 164.5q0 61 -34.5 102.5t-85 66t-142.5 59.5q-102 37 -168.5 70.5t-111.5 94t-45 152.5q0 137 93 211t234 74q104 0 185 -28.5t157 -86.5l-49 -86q-59 53 -135 81t-158 28q-96 0 -158.5 -48t-62.5 -143 q0 -61 35 -102t85 -65.5t142 -59.5q106 -39 171 -73t110 -93t45 -154q0 -143 -103.5 -230t-261.5 -87q-129 0 -214 27.5t-163 87.5z" />
<glyph unicode="t" horiz-adv-x="827" d="M72 975v49l182 39l33 244h69v-242h328v-90h-328v-633q0 -143 45 -209.5t152 -66.5q47 0 82 11t92 40l23 -90q-55 -31 -100.5 -44.5t-96.5 -13.5q-307 0 -307 369v637h-174z" />
<glyph unicode="u" horiz-adv-x="1177" d="M195 285v780h110v-776q0 -121 43 -177.5t146 -56.5q84 0 173 41t195 129v840h111v-1065h-90l-17 125q-197 -166 -389 -166q-162 0 -222 83t-60 243z" />
<glyph unicode="v" horiz-adv-x="1009" d="M41 1065h117l350 -907l348 907h113l-418 -1083h-90z" />
<glyph unicode="w" horiz-adv-x="1589" d="M41 1065h117l270 -903l326 903h86l331 -903l265 903h112l-336 -1083h-90l-327 897l-326 -897h-90z" />
<glyph unicode="x" horiz-adv-x="1105" d="M61 0l412 559l-371 506h140l313 -426l313 426h136l-371 -506l411 -559h-141l-352 481l-352 -481h-138z" />
<glyph unicode="y" horiz-adv-x="1034" d="M41 -485l22 96q37 -10 76 -10q66 0 114 24.5t92 88t89 182.5l41 110l-409 1059h116l353 -907l346 907h112l-467 -1217q-72 -186 -162 -268t-225 -82q-49 0 -98 17z" />
<glyph unicode="z" horiz-adv-x="1001" d="M102 0v55l641 920h-620v90h756v-68l-633 -907h653v-90h-797z" />
<glyph unicode="{" horiz-adv-x="593" d="M29 551v78q109 10 161 47t52 106q0 74 -21 209q-18 115 -18 185q0 158 87 214t224 54v-88q-205 2 -205 -144q0 -98 21 -221q18 -100 18 -172q0 -84 -41 -143.5t-117 -83.5v-4q78 -25 118 -83.5t40 -146.5q0 -70 -18 -170q-20 -123 -21 -221q0 -143 205 -143v-90 q-137 0 -223 56t-86 214q0 70 18 184q20 131 21 207q0 72 -52.5 108t-162.5 48z" />
<glyph unicode="|" horiz-adv-x="690" d="M287 -483v2136h114v-2136h-114z" />
<glyph unicode="}" horiz-adv-x="593" d="M80 -176q205 -2 205 143q0 98 -21 221q-18 100 -18 172q0 84 41 143.5t116 84.5v4q-78 25 -117.5 83t-39.5 146q0 70 18 170q20 123 21 221q0 143 -205 144v90q137 0 223 -56.5t86 -213.5q0 -70 -18 -185q-20 -131 -21 -207q0 -72 52.5 -107.5t162.5 -47.5v-78 q-109 -10 -161 -47t-52 -107q0 -74 21 -209q18 -115 18 -184q0 -158 -87 -214t-224 -54v88z" />
<glyph unicode="~" d="M10 504q66 82 137.5 134t171.5 52q61 0 110.5 -20.5t109.5 -57.5q55 -33 91 -48t79 -15q133 0 237 147l70 -61q-68 -84 -137.5 -134t-169.5 -50q-55 0 -98.5 18t-110.5 55q-55 35 -95 51.5t-86 16.5q-74 0 -132 -42t-109 -112z" />
<glyph horiz-adv-x="0" />
<glyph unicode="&#xa1;" horiz-adv-x="512" d="M168 0zM168 1019q0 35 25.5 60.5t62.5 25.5q35 0 60.5 -25.5t25.5 -60.5t-25.5 -61.5t-60.5 -26.5q-37 0 -62.5 27t-25.5 61zM201 -308l20 1037h70l41 -1037h-131z" />
<glyph unicode="&#xa2;" d="M72 692q0 215 106.5 371t306.5 188v293h109v-284q102 -4 191 -43t149 -111l-66 -76q-47 59 -121.5 95t-152.5 40v-942q176 14 303 180l57 -71q-143 -189 -360 -203v-287h-109v289q-201 29 -307 186.5t-106 374.5zM188 694q0 -184 78 -311t219 -154v926 q-143 -35 -220 -160t-77 -301z" />
<glyph unicode="&#xa3;" d="M90 655v93h162q-68 139 -68 296q0 100 46 186.5t134.5 138.5t206.5 52q109 -2 184.5 -47t133.5 -121l-70 -57q-49 61 -106.5 94t-141.5 35q-133 0 -203.5 -81t-70.5 -204q0 -88 20.5 -155.5t57.5 -136.5h432v-93h-387q45 -104 45 -200q0 -94 -52.5 -179.5t-158.5 -185.5 h655v-90h-817v66q131 123 195.5 215t64.5 174q0 53 -14 100t-41 100h-207z" />
<glyph unicode="&#xa4;" d="M166 262l90 90q-57 86 -57 193q0 106 57 192l-90 90l63 64l86 -86q82 66 197 65q115 0 197 -65l86 86l63 -64l-88 -88q57 -86 57 -190q0 -113 -59 -197l90 -90l-63 -63l-88 88q-76 -63 -195 -64q-111 0 -195 64l-88 -88zM289 547q0 -106 62.5 -177t160.5 -71t161.5 70.5 t63.5 177.5q0 106 -63.5 177t-161.5 71t-160.5 -71t-62.5 -177z" />
<glyph unicode="&#xa5;" d="M80 1393h129l303 -521l305 521h123l-324 -523h273v-92h-322v-153h322v-93h-322v-532h-112v532h-324v93h324v153h-324v92h270z" />
<glyph unicode="&#xa6;" horiz-adv-x="690" d="M287 352h114v-835h-114v835zM287 817v836h114v-836h-114z" />
<glyph unicode="&#xa7;" horiz-adv-x="1236" d="M268 -172l49 86q59 -53 135 -81t158 -28q113 0 185.5 58.5t72.5 173.5q0 59 -34.5 99t-86 64.5t-141.5 57.5q-109 39 -172 71.5t-108 92t-45 151.5q0 86 47 155t135 132q-72 43 -111 101.5t-39 146.5q0 137 93.5 211t234.5 74q104 0 185 -29t157 -86l-49 -86 q-59 53 -135 80.5t-158 27.5q-96 0 -158.5 -48t-62.5 -142q0 -61 34.5 -103t86 -68t141.5 -60q109 -41 172.5 -75t108.5 -94.5t45 -156.5q0 -84 -45 -151.5t-129 -129.5q67 -41 104 -96t37 -137q0 -158 -103.5 -242t-261.5 -84q-104 0 -185 29t-157 86zM387 573 q0 -59 35 -99t86 -64.5t141 -57.5q61 -20 90 -33q162 92 162 234q0 61 -36 104t-87 70t-141 59q-27 8 -76 29q-174 -96 -174 -242z" />
<glyph unicode="&#xa8;" d="M248 1556q0 33 23.5 57.5t56.5 24.5q35 0 58.5 -23.5t23.5 -58.5q0 -31 -25 -54t-57 -23q-33 0 -56.5 23.5t-23.5 53.5zM616 1556q0 33 24 57.5t56 24.5q35 0 58.5 -23.5t23.5 -58.5q0 -31 -24.5 -54t-57.5 -23q-32 0 -56 23.5t-24 53.5z" />
<glyph unicode="&#xa9;" horiz-adv-x="1677" d="M123 705q0 195 96 359.5t261 260.5t358 96q195 0 359.5 -96t260.5 -261t96 -359q0 -201 -96 -370t-261 -268.5t-359 -99.5q-193 0 -358 99.5t-261 268.5t-96 370zM215 705q0 -178 84 -329t226.5 -239t312.5 -88t313 88t227 238.5t84 329.5q0 172 -85 318t-228 231 t-311 85q-170 0 -312.5 -85t-226.5 -230t-84 -319zM487 694q0 96 45.5 179t130.5 133.5t197 50.5q76 0 144.5 -29t115.5 -82l-61 -53q-33 37 -88.5 59.5t-110.5 22.5q-121 0 -199.5 -81t-78.5 -200q0 -123 74.5 -203.5t189.5 -80.5q145 0 233 112l56 -51q-49 -63 -122 -102 t-167 -39q-109 0 -190 50t-125 134t-44 180z" />
<glyph unicode="&#xaa;" horiz-adv-x="651" d="M63 872q0 72 44.5 118t123 77t222.5 70v57q0 61 -23.5 101t-91.5 40q-59 0 -105.5 -26.5t-105.5 -98.5l-61 52q123 152 270 151q109 0 157 -52t48 -169v-344q0 -43 30 -43q16 0 37 12l13 -69q-43 -16 -72 -17q-88 0 -96 98q-121 -100 -222 -100q-74 0 -121 41t-47 102z M66 451v79h532v-79h-532zM152 874q0 -34 23.5 -51.5t57.5 -17.5q49 0 99.5 25.5t120.5 78.5v152q-168 -43 -234.5 -83t-66.5 -104z" />
<glyph unicode="&#xab;" horiz-adv-x="1064" d="M82 98zM82 530l407 433l68 -66l-340 -367l340 -368l-68 -64zM512 530l407 433l68 -66l-340 -367l340 -368l-68 -64z" />
<glyph unicode="&#xac;" d="M68 500v90h888v-490h-90v400h-798z" />
<glyph unicode="&#xad;" horiz-adv-x="1228" d="M41 502v90h430v-90h-430zM41 502z" />
<glyph unicode="&#xae;" horiz-adv-x="698" d="M70 1141q0 76 37.5 140.5t102 102t140.5 37.5t140.5 -37.5t101.5 -102t37 -140.5t-37 -139.5t-101.5 -101.5t-140.5 -38t-140.5 38t-102 101.5t-37.5 139.5zM127 1141q0 -92 65.5 -159t155.5 -67q92 0 157.5 67t65.5 159q0 94 -65.5 161.5t-157.5 67.5 q-90 0 -155.5 -67.5t-65.5 -161.5zM244 1004v278h110q51 0 81 -26.5t30 -67.5q0 -61 -53 -84l73 -100h-77l-64 90h-35v-90h-65zM309 1147h41q23 0 35 10t12 31q0 16 -13 28.5t-34 12.5h-41v-82z" />
<glyph unicode="&#xaf;" d="M225 1516v86h574v-86h-574z" />
<glyph unicode="&#xb0;" horiz-adv-x="874" d="M123 1096q0 86 38 160.5t108.5 119.5t166.5 45t168 -45t110 -118.5t38 -157.5q0 -88 -38 -163t-110 -119t-168 -44t-166.5 44t-108.5 118t-38 160zM213 1098q0 -106 62.5 -177t160.5 -71q99 0 162.5 70.5t63.5 177.5q0 106 -63.5 177t-162.5 71q-98 0 -160.5 -71 t-62.5 -177z" />
<glyph unicode="&#xb1;" d="M68 0v90h888v-90h-888zM68 551v90h399v348h90v-348h399v-90h-399v-328h-90v328h-399z" />
<glyph unicode="&#xb2;" horiz-adv-x="614" d="M29 1669q57 76 120.5 112t143.5 36q115 0 182.5 -64.5t67.5 -173.5q0 -92 -51.5 -182t-188.5 -223l-129 -127v-3h391v-77h-524v63l217 211q109 106 153 186t44 152q0 76 -44 119t-118 43q-61 0 -107.5 -26.5t-101.5 -92.5z" />
<glyph unicode="&#xb3;" horiz-adv-x="616" d="M23 1061l53 57q51 -57 97 -77.5t114 -20.5q88 0 145 51t57 131q0 74 -49 118t-137 44q-59 0 -121 -21l-20 74q100 25 158.5 48.5t91 62.5t32.5 104q0 49 -34.5 79t-96.5 30q-115 0 -213 -115l-53 43q53 72 124 110t142 38q100 0 161 -50.5t61 -134.5q0 -74 -43 -130 t-115 -87q86 -8 144.5 -65.5t58.5 -145.5q0 -109 -81 -184.5t-212 -75.5q-90 0 -151.5 25.5t-112.5 91.5z" />
<glyph unicode="&#xb4;" d="M354 1208l199 434h117l-226 -434h-90z" />
<glyph unicode="&#xb6;" horiz-adv-x="1204" d="M61 903q0 139 62.5 251t186.5 175.5t300 63.5h348v-1446q0 -217 -85 -333t-263 -116q-49 0 -98 17l23 94q37 -10 75 -10q125 0 179.5 85t54.5 267v459h-234q-264 0 -406.5 134t-142.5 359z" />
<glyph unicode="&#xb7;" horiz-adv-x="512" d="M170 541q0 35 25.5 61.5t60.5 26.5q37 0 62.5 -27t25.5 -61q0 -35 -25.5 -60.5t-62.5 -25.5q-35 0 -60.5 25.5t-25.5 60.5z" />
<glyph unicode="&#xb8;" d="M360 -190l103 190h86l-86 -160q41 12 69 13q58 0 95 -32t37 -83q0 -70 -55.5 -122t-176.5 -99l-41 57q102 47 139 81t37 71q0 51 -61 51q-37 0 -82 -23z" />
<glyph unicode="&#xb9;" horiz-adv-x="614" d="M104 1610l205 192h76v-758h164v-77h-416v77h164v639l-139 -133z" />
<glyph unicode="&#xba;" horiz-adv-x="710" d="M61 1075q0 148 76 247t217 99q143 0 219 -99t76 -243q0 -147 -75.5 -246.5t-219.5 -99.5q-141 0 -217 98.5t-76 243.5zM90 451v79h531v-79h-531zM152 1077q0 -117 53 -192.5t149 -75.5t150.5 74.5t54.5 193.5q0 117 -54 193t-151 76q-94 0 -148 -76t-54 -193z" />
<glyph unicode="&#xbb;" horiz-adv-x="1064" d="M78 98zM78 164l340 366l-340 369l67 64l408 -433l-408 -432zM508 164l340 366l-340 369l67 64l408 -433l-408 -432z" />
<glyph unicode="&#xbc;" horiz-adv-x="1593" d="M104 0zM104 1200l205 192h76v-758h164v-77h-416v77h164v639l-139 -133zM428 2l819 1417l72 -43l-820 -1417zM985 231v54l391 551h76v-529h137v-76h-137v-231h-88v231h-379zM1098 307h266v373l-154 -213z" />
<glyph unicode="&#xbd;" horiz-adv-x="1654" d="M104 0zM104 1200l205 192h76v-758h164v-77h-416v77h164v639l-139 -133zM428 2l819 1417l72 -43l-820 -1417zM1069 702q57 76 120.5 112t143.5 36q115 0 182.5 -64.5t67.5 -173.5q0 -92 -51.5 -182t-188.5 -223l-129 -127v-3h391v-77h-524v63l217 211q109 106 153 186 t44 152q0 76 -44 119t-118 43q-61 0 -107.5 -26.5t-101.5 -92.5z" />
<glyph unicode="&#xbe;" horiz-adv-x="1503" d="M23 0zM23 651l53 57q51 -57 97 -77.5t114 -20.5q88 0 145 51t57 131q0 74 -49 118t-137 44q-59 0 -121 -21l-20 74q100 25 158.5 48.5t91 62.5t32.5 104q0 49 -34.5 79t-96.5 30q-115 0 -213 -115l-53 43q53 72 124 110t142 38q100 0 161 -50.5t61 -134.5q0 -74 -43 -130 t-115 -87q86 -8 144.5 -65.5t58.5 -145.5q0 -109 -81 -184.5t-212 -75.5q-90 0 -151.5 25.5t-112.5 91.5zM338 2l819 1417l72 -43l-820 -1417zM895 231v54l391 551h76v-529h137v-76h-137v-231h-88v231h-379zM1008 307h266v373l-154 -213z" />
<glyph unicode="&#xbf;" horiz-adv-x="882" d="M145 0zM145 71q0 305 429 402l8 256h69l13 -326q-217 -41 -312.5 -114.5t-95.5 -219.5q0 -127 105.5 -208t386.5 -81v-90q-319 0 -461 106.5t-142 274.5zM528 1019q0 35 26 60.5t63 25.5q34 0 60 -25.5t26 -60.5t-26 -61.5t-60 -26.5q-37 0 -63 27t-26 61z" />
<glyph unicode="&#xc0;" horiz-adv-x="1288" d="M51 0l543 1411h98l545 -1411h-117l-184 479h-588l-184 -479h-113zM51 0zM344 1806h113l239 -290h-96zM383 573h516l-258 674z" />
<glyph unicode="&#xc1;" horiz-adv-x="1288" d="M51 0l543 1411h98l545 -1411h-117l-184 479h-588l-184 -479h-113zM51 0zM383 573h516l-258 674zM598 1516l239 290h113l-256 -290h-96z" />
<glyph unicode="&#xc2;" horiz-adv-x="1288" d="M51 0l543 1411h98l545 -1411h-117l-184 479h-588l-184 -479h-113zM51 0zM344 1516l240 290h122l240 -290h-98l-205 229l-201 -229h-98zM383 573h516l-258 674z" />
<glyph unicode="&#xc3;" horiz-adv-x="1288" d="M51 0l543 1411h98l545 -1411h-117l-184 479h-588l-184 -479h-113zM51 0zM328 1548q10 125 56 192.5t128 67.5q55 0 89 -27.5t71 -78.5q31 -41 53 -60.5t53 -19.5q47 0 69.5 42t35.5 144l79 -8q-10 -125 -56 -192.5t-128 -67.5q-57 0 -91 27.5t-77 83.5q-29 39 -49 57 t-49 18q-47 0 -69.5 -42t-35.5 -144zM383 573h516l-258 674z" />
<glyph unicode="&#xc4;" horiz-adv-x="1288" d="M51 0l543 1411h98l545 -1411h-117l-184 479h-588l-184 -479h-113zM51 0zM381 1675q0 33 23.5 57.5t56.5 24.5q35 0 58.5 -23.5t23.5 -58.5q0 -31 -25 -54.5t-57 -23.5q-33 0 -56.5 24t-23.5 54zM383 573h516l-258 674zM749 1675q0 33 24 57.5t56 24.5q35 0 58.5 -23.5 t23.5 -58.5q0 -31 -24.5 -54.5t-57.5 -23.5q-32 0 -56 24t-24 54z" />
<glyph unicode="&#xc5;" horiz-adv-x="1288" d="M51 0l543 1411h98l545 -1411h-117l-184 479h-588l-184 -479h-113zM51 0zM383 573h516l-258 674zM471 1671q0 63 46 109.5t128 46.5t128 -46t46 -110q0 -63 -46 -109t-128 -46t-128 46t-46 109zM553 1671q0 -37 24.5 -60.5t67.5 -23.5t67.5 23.5t24.5 60.5t-24.5 60.5 t-67.5 23.5t-67.5 -23.5t-24.5 -60.5z" />
<glyph unicode="&#xc6;" horiz-adv-x="2004" d="M51 0l963 1393h827v-95h-661v-575h579v-94h-579v-535h702v-94h-817v629h-453l-428 -629h-133zM676 723h389v571z" />
<glyph unicode="&#xc7;" horiz-adv-x="1429" d="M123 698q0 197 78 362t235.5 263t384.5 98q143 0 268 -52t209 -148l-77 -70q-66 82 -175.5 128t-224.5 46q-186 0 -317 -82t-198.5 -224t-67.5 -323q0 -182 64.5 -326.5t189 -226.5t301.5 -82q274 0 464 238l70 -68q-86 -108 -209 -179.5t-278 -82.5l-70 -129 q41 12 70 13q57 0 94 -32t37 -83q0 -70 -55.5 -122t-176.5 -99l-41 57q102 47 139 81t37 71q0 51 -61 51q-37 0 -82 -23l-63 56l86 157q-205 10 -347.5 112.5t-213 264.5t-70.5 354z" />
<glyph unicode="&#xc8;" horiz-adv-x="1185" d="M246 0v1393h776v-95h-662v-514h580v-94h-580v-596h703v-94h-817zM246 0zM342 1806h113l239 -290h-96z" />
<glyph unicode="&#xc9;" horiz-adv-x="1185" d="M246 0v1393h776v-95h-662v-514h580v-94h-580v-596h703v-94h-817zM246 0zM596 1516l239 290h113l-256 -290h-96z" />
<glyph unicode="&#xca;" horiz-adv-x="1185" d="M246 0v1393h776v-95h-662v-514h580v-94h-580v-596h703v-94h-817zM246 0zM342 1516l240 290h122l240 -290h-98l-205 229l-201 -229h-98z" />
<glyph unicode="&#xcb;" horiz-adv-x="1185" d="M246 0v1393h776v-95h-662v-514h580v-94h-580v-596h703v-94h-817zM246 0zM379 1675q0 33 23.5 57.5t56.5 24.5q35 0 58.5 -23.5t23.5 -58.5q0 -31 -25 -54.5t-57 -23.5q-33 0 -56.5 24t-23.5 54zM747 1675q0 33 24 57.5t56 24.5q35 0 58.5 -23.5t23.5 -58.5 q0 -31 -24.5 -54.5t-57.5 -23.5q-32 0 -56 24t-24 54z" />
<glyph unicode="&#xcc;" horiz-adv-x="606" d="M2 0zM2 1806h113l239 -290h-96zM246 0v1393h114v-1393h-114z" />
<glyph unicode="&#xcd;" horiz-adv-x="606" d="M246 0v1393h114v-1393h-114zM246 0zM256 1516l239 290h113l-256 -290h-96z" />
<glyph unicode="&#xce;" horiz-adv-x="606" d="M2 0zM2 1516l240 290h122l240 -290h-98l-205 229l-201 -229h-98zM246 0v1393h114v-1393h-114z" />
<glyph unicode="&#xcf;" horiz-adv-x="606" d="M39 0zM39 1675q0 33 23.5 57.5t56.5 24.5q35 0 58.5 -23.5t23.5 -58.5q0 -31 -25 -54.5t-57 -23.5q-33 0 -56.5 24t-23.5 54zM246 0v1393h114v-1393h-114zM407 1675q0 33 24 57.5t56 24.5q35 0 58.5 -23.5t23.5 -58.5q0 -31 -24.5 -54.5t-57.5 -23.5q-32 0 -56 24t-24 54 z" />
<glyph unicode="&#xd0;" horiz-adv-x="1470" d="M6 653v86h240v654h450q209 0 355.5 -90.5t221.5 -248t75 -356.5q0 -205 -75 -362.5t-221.5 -246.5t-355.5 -89h-450v653h-240zM360 94h336q256 0 396.5 162t140.5 440q0 274 -140.5 438t-396.5 164h-336v-559h445v-86h-445v-559z" />
<glyph unicode="&#xd1;" horiz-adv-x="1546" d="M246 0v1393h94l846 -1188v1188h114v-1393l-94 -2l-846 1184v-1182h-114zM246 0zM457 1548q10 125 56 192.5t128 67.5q55 0 89 -27.5t71 -78.5q31 -41 53 -60.5t53 -19.5q47 0 69.5 42t35.5 144l79 -8q-10 -125 -56 -192.5t-128 -67.5q-57 0 -91 27.5t-77 83.5 q-29 39 -49 57t-49 18q-47 0 -69.5 -42t-35.5 -144z" />
<glyph unicode="&#xd2;" horiz-adv-x="1548" d="M123 0zM123 692q0 201 74.5 367t221 264t355.5 98q207 0 354.5 -98t222 -263t74.5 -364q0 -203 -74.5 -368.5t-222 -264t-354.5 -98.5q-209 0 -355.5 97.5t-221 263.5t-74.5 366zM238 694q0 -182 62 -325.5t183 -225.5t291 -82t291 82t183.5 225.5t62.5 325.5 q0 180 -62.5 322.5t-183.5 225.5t-291 83t-291 -83t-183 -225.5t-62 -322.5zM473 1806h113l239 -290h-96z" />
<glyph unicode="&#xd3;" horiz-adv-x="1548" d="M123 0zM123 692q0 201 74.5 367t221 264t355.5 98q207 0 354.5 -98t222 -263t74.5 -364q0 -203 -74.5 -368.5t-222 -264t-354.5 -98.5q-209 0 -355.5 97.5t-221 263.5t-74.5 366zM238 694q0 -182 62 -325.5t183 -225.5t291 -82t291 82t183.5 225.5t62.5 325.5 q0 180 -62.5 322.5t-183.5 225.5t-291 83t-291 -83t-183 -225.5t-62 -322.5zM727 1516l239 290h113l-256 -290h-96z" />
<glyph unicode="&#xd4;" horiz-adv-x="1548" d="M123 0zM123 692q0 201 74.5 367t221 264t355.5 98q207 0 354.5 -98t222 -263t74.5 -364q0 -203 -74.5 -368.5t-222 -264t-354.5 -98.5q-209 0 -355.5 97.5t-221 263.5t-74.5 366zM238 694q0 -182 62 -325.5t183 -225.5t291 -82t291 82t183.5 225.5t62.5 325.5 q0 180 -62.5 322.5t-183.5 225.5t-291 83t-291 -83t-183 -225.5t-62 -322.5zM473 1516l240 290h122l240 -290h-98l-205 229l-201 -229h-98z" />
<glyph unicode="&#xd5;" horiz-adv-x="1548" d="M123 0zM123 692q0 201 74.5 367t221 264t355.5 98q207 0 354.5 -98t222 -263t74.5 -364q0 -203 -74.5 -368.5t-222 -264t-354.5 -98.5q-209 0 -355.5 97.5t-221 263.5t-74.5 366zM238 694q0 -182 62 -325.5t183 -225.5t291 -82t291 82t183.5 225.5t62.5 325.5 q0 180 -62.5 322.5t-183.5 225.5t-291 83t-291 -83t-183 -225.5t-62 -322.5zM457 1548q10 125 56 192.5t128 67.5q55 0 89 -27.5t71 -78.5q31 -41 53 -60.5t53 -19.5q47 0 69.5 42t35.5 144l79 -8q-10 -125 -56 -192.5t-128 -67.5q-57 0 -91 27.5t-77 83.5q-29 39 -49 57 t-49 18q-47 0 -69.5 -42t-35.5 -144z" />
<glyph unicode="&#xd6;" horiz-adv-x="1548" d="M123 0zM123 692q0 201 74.5 367t221 264t355.5 98q207 0 354.5 -98t222 -263t74.5 -364q0 -203 -74.5 -368.5t-222 -264t-354.5 -98.5q-209 0 -355.5 97.5t-221 263.5t-74.5 366zM238 694q0 -182 62 -325.5t183 -225.5t291 -82t291 82t183.5 225.5t62.5 325.5 q0 180 -62.5 322.5t-183.5 225.5t-291 83t-291 -83t-183 -225.5t-62 -322.5zM510 1675q0 33 23.5 57.5t56.5 24.5q35 0 58.5 -23.5t23.5 -58.5q0 -31 -25 -54.5t-57 -23.5q-33 0 -56.5 24t-23.5 54zM878 1675q0 33 24 57.5t56 24.5q35 0 58.5 -23.5t23.5 -58.5 q0 -31 -24.5 -54.5t-57.5 -23.5q-32 0 -56 24t-24 54z" />
<glyph unicode="&#xd7;" d="M166 262l283 283l-283 282l63 64l283 -283l283 283l63 -64l-283 -282l283 -283l-63 -63l-283 282l-283 -282z" />
<glyph unicode="&#xd8;" horiz-adv-x="1648" d="M123 12l156 178q-76 98 -116 227.5t-40 274.5q0 201 74.5 367t221 264t355.5 98q268 0 440 -166l148 168l63 -57l-153 -174q76 -98 114.5 -225t38.5 -271q0 -203 -74.5 -368.5t-222 -264t-354.5 -98.5q-262 0 -436 160l-150 -170zM238 694q0 -123 28.5 -231.5 t85.5 -188.5l793 902q-143 150 -371 149q-170 0 -291 -83t-183 -225.5t-62 -322.5zM408 205q143 -143 366 -144q170 0 291 82t183.5 225.5t62.5 325.5q0 246 -113 414z" />
<glyph unicode="&#xd9;" horiz-adv-x="1505" d="M225 0zM225 506v887h115v-885q0 -207 107.5 -327t306.5 -120q197 0 304 120t107 327v885h115v-883q0 -160 -59.5 -283t-178 -192.5t-288.5 -69.5t-289 69.5t-179.5 191.5t-60.5 280zM453 1806h113l239 -290h-96z" />
<glyph unicode="&#xda;" horiz-adv-x="1505" d="M225 0zM225 506v887h115v-885q0 -207 107.5 -327t306.5 -120q197 0 304 120t107 327v885h115v-883q0 -160 -59.5 -283t-178 -192.5t-288.5 -69.5t-289 69.5t-179.5 191.5t-60.5 280zM707 1516l239 290h113l-256 -290h-96z" />
<glyph unicode="&#xdb;" horiz-adv-x="1505" d="M225 0zM225 506v887h115v-885q0 -207 107.5 -327t306.5 -120q197 0 304 120t107 327v885h115v-883q0 -160 -59.5 -283t-178 -192.5t-288.5 -69.5t-289 69.5t-179.5 191.5t-60.5 280zM453 1516l240 290h122l240 -290h-98l-205 229l-201 -229h-98z" />
<glyph unicode="&#xdc;" horiz-adv-x="1505" d="M225 0zM225 506v887h115v-885q0 -207 107.5 -327t306.5 -120q197 0 304 120t107 327v885h115v-883q0 -160 -59.5 -283t-178 -192.5t-288.5 -69.5t-289 69.5t-179.5 191.5t-60.5 280zM490 1675q0 33 23.5 57.5t56.5 24.5q35 0 58.5 -23.5t23.5 -58.5q0 -31 -25 -54.5 t-57 -23.5q-33 0 -56.5 24t-23.5 54zM858 1675q0 33 24 57.5t56 24.5q35 0 58.5 -23.5t23.5 -58.5q0 -31 -24.5 -54.5t-57.5 -23.5q-32 0 -56 24t-24 54z" />
<glyph unicode="&#xdd;" horiz-adv-x="1286" d="M72 0zM72 1393h133l438 -723l442 723h129l-514 -822v-571h-114v565zM596 1516l239 290h113l-256 -290h-96z" />
<glyph unicode="&#xde;" horiz-adv-x="1312" d="M246 0v1393h114v-287h316q149 0 254.5 -50t159 -138.5t53.5 -198.5q0 -178 -121 -284.5t-346 -106.5h-316v-328h-114zM360 422h316q172 0 262 74.5t90 220.5q0 135 -92 215t-260 80h-316v-590z" />
<glyph unicode="&#xdf;" horiz-adv-x="1150" d="M205 0v1190q0 215 108.5 331.5t313.5 116.5q166 0 259 -78.5t93 -218.5q0 -70 -26.5 -122t-65.5 -87.5t-103 -80.5q-82 -59 -120.5 -104.5t-38.5 -112.5q0 -51 23.5 -88t57 -62t97.5 -61q78 -43 127 -82t84 -103.5t35 -161.5q0 -96 -46.5 -167.5t-123 -110.5t-166.5 -39 q-156 0 -262 80l49 86q88 -74 213 -74q96 0 162.5 60.5t66.5 164.5q0 66 -27.5 112t-66.5 76t-109 73q-74 43 -116.5 76.5t-73.5 87t-31 130.5q0 94 46 151.5t136 123.5q86 63 127 112.5t41 129.5q0 94 -62.5 144t-178.5 50q-158 0 -235 -88t-77 -268v-1186h-110z" />
<glyph unicode="&#xe0;" horiz-adv-x="1085" d="M106 0zM106 219q0 94 53.5 158.5t151 108.5t254.5 89l191 54v110q0 121 -41 196t-152 75q-109 0 -190.5 -44t-186.5 -173l-77 59q203 254 452 254q170 0 237.5 -85t67.5 -284v-594q0 -45 15.5 -64.5t48.5 -19.5q35 0 90 25l14 -86q-70 -29 -119 -29q-74 0 -116.5 35 t-42.5 125v4q-205 -166 -369 -166q-125 0 -203 71t-78 181zM217 219q0 -84 48 -122t124 -38q82 0 165 42t202 132v306l-152 -43q-211 -59 -299 -121t-88 -156zM256 1638h117l199 -430h-90z" />
<glyph unicode="&#xe1;" horiz-adv-x="1085" d="M106 0zM106 219q0 94 53.5 158.5t151 108.5t254.5 89l191 54v110q0 121 -41 196t-152 75q-109 0 -190.5 -44t-186.5 -173l-77 59q203 254 452 254q170 0 237.5 -85t67.5 -284v-594q0 -45 15.5 -64.5t48.5 -19.5q35 0 90 25l14 -86q-70 -29 -119 -29q-74 0 -116.5 35 t-42.5 125v4q-205 -166 -369 -166q-125 0 -203 71t-78 181zM217 219q0 -84 48 -122t124 -38q82 0 165 42t202 132v306l-152 -43q-211 -59 -299 -121t-88 -156zM477 1208l199 434h117l-226 -434h-90z" />
<glyph unicode="&#xe2;" horiz-adv-x="1085" d="M106 0zM106 219q0 94 53.5 158.5t151 108.5t254.5 89l191 54v110q0 121 -41 196t-152 75q-109 0 -190.5 -44t-186.5 -173l-77 59q203 254 452 254q170 0 237.5 -85t67.5 -284v-594q0 -45 15.5 -64.5t48.5 -19.5q35 0 90 25l14 -86q-70 -29 -119 -29q-74 0 -116.5 35 t-42.5 125v4q-205 -166 -369 -166q-125 0 -203 71t-78 181zM217 219q0 -84 48 -122t124 -38q82 0 165 42t202 132v306l-152 -43q-211 -59 -299 -121t-88 -156zM258 1208l215 430h106l215 -430h-90l-178 340l-178 -340h-90z" />
<glyph unicode="&#xe3;" horiz-adv-x="1085" d="M106 0zM106 219q0 94 53.5 158.5t151 108.5t254.5 89l191 54v110q0 121 -41 196t-152 75q-109 0 -190.5 -44t-186.5 -173l-77 59q203 254 452 254q170 0 237.5 -85t67.5 -284v-594q0 -45 15.5 -64.5t48.5 -19.5q35 0 90 25l14 -86q-70 -29 -119 -29q-74 0 -116.5 35 t-42.5 125v4q-205 -166 -369 -166q-125 0 -203 71t-78 181zM209 1300q10 125 56 193t128 68q55 0 89 -28t71 -79q31 -41 53 -60.5t53 -19.5q47 0 69.5 42t35.5 145l79 -9q-10 -125 -56 -192.5t-128 -67.5q-57 0 -91 28t-77 83q-29 39 -49 57.5t-49 18.5q-47 0 -69.5 -42 t-35.5 -145zM217 219q0 -84 48 -122t124 -38q82 0 165 42t202 132v306l-152 -43q-211 -59 -299 -121t-88 -156z" />
<glyph unicode="&#xe4;" horiz-adv-x="1085" d="M106 0zM106 219q0 94 53.5 158.5t151 108.5t254.5 89l191 54v110q0 121 -41 196t-152 75q-109 0 -190.5 -44t-186.5 -173l-77 59q203 254 452 254q170 0 237.5 -85t67.5 -284v-594q0 -45 15.5 -64.5t48.5 -19.5q35 0 90 25l14 -86q-70 -29 -119 -29q-74 0 -116.5 35 t-42.5 125v4q-205 -166 -369 -166q-125 0 -203 71t-78 181zM217 219q0 -84 48 -122t124 -38q82 0 165 42t202 132v306l-152 -43q-211 -59 -299 -121t-88 -156zM262 1556q0 33 23.5 57.5t56.5 24.5q35 0 58.5 -23.5t23.5 -58.5q0 -31 -25 -54t-57 -23q-33 0 -56.5 23.5 t-23.5 53.5zM630 1556q0 33 24 57.5t56 24.5q35 0 58.5 -23.5t23.5 -58.5q0 -31 -24.5 -54t-57.5 -23q-32 0 -56 23.5t-24 53.5z" />
<glyph unicode="&#xe5;" horiz-adv-x="1085" d="M106 0zM106 219q0 94 53.5 158.5t151 108.5t254.5 89l191 54v110q0 121 -41 196t-152 75q-109 0 -190.5 -44t-186.5 -173l-77 59q203 254 452 254q170 0 237.5 -85t67.5 -284v-594q0 -45 15.5 -64.5t48.5 -19.5q35 0 90 25l14 -86q-70 -29 -119 -29q-74 0 -116.5 35 t-42.5 125v4q-205 -166 -369 -166q-125 0 -203 71t-78 181zM217 219q0 -84 48 -122t124 -38q82 0 165 42t202 132v306l-152 -43q-211 -59 -299 -121t-88 -156zM311 1425q0 86 57.5 149.5t157.5 63.5t157.5 -63.5t57.5 -149.5q0 -88 -57.5 -152.5t-157.5 -64.5t-157.5 64.5 t-57.5 152.5zM393 1425q0 -63 36 -104t97 -41t97 41t36 104q0 61 -36 101.5t-97 40.5t-97 -40t-36 -102z" />
<glyph unicode="&#xe6;" horiz-adv-x="1740" d="M106 219q0 94 53.5 158.5t151 108.5t254.5 89l191 54v110q0 121 -41 196t-152 75q-109 0 -190.5 -44t-186.5 -173l-77 59q203 254 452 254q131 0 199.5 -50t91.5 -159q61 98 160.5 153.5t232.5 55.5q102 0 190.5 -44t141.5 -128t53 -197q0 -41 -10 -98h-741 q-8 -47 -9 -107q0 -213 98.5 -347t276.5 -134q193 0 336 189l57 -70q-160 -211 -393 -211q-143 0 -246.5 63.5t-164.5 176.5q-254 -231 -447 -232q-125 0 -203 71t-78 181zM217 219q0 -84 48 -122t124 -38q90 0 182.5 52.5t227.5 162.5q-43 117 -43 256v7l-152 -41 q-211 -59 -299 -121t-88 -156zM897 729h621v10q0 90 -40 152.5t-102.5 92.5t-130.5 30q-131 0 -220 -77t-128 -208z" />
<glyph unicode="&#xe7;" horiz-adv-x="1044" d="M102 530q0 158 57.5 288t172 209t280.5 79q104 0 197.5 -40t155.5 -114l-66 -82q-51 66 -128 105t-159 39q-186 0 -290.5 -135.5t-104.5 -346.5q0 -213 98.5 -347t276.5 -134q199 0 336 182l57 -69q-63 -84 -154.5 -140.5t-205.5 -64.5l-66 -119q41 12 70 13q57 0 94 -32 t37 -83q0 -70 -55.5 -122t-176.5 -99l-41 57q102 47 139.5 81t37.5 71q0 51 -62 51q-37 0 -82 -23l-63 56l82 151q-141 14 -239.5 94t-148 204t-49.5 271z" />
<glyph unicode="&#xe8;" horiz-adv-x="1087" d="M102 0zM102 530q0 158 54.5 288t165 209t270.5 79q102 0 190 -44t141.5 -128t53.5 -197q0 -41 -10 -98h-742q-8 -47 -8 -107q0 -213 98.5 -347t276.5 -134q199 0 336 182l57 -69q-70 -90 -168 -147.5t-225 -57.5q-160 0 -270.5 78t-165 208t-54.5 285zM244 729h620v10 q0 90 -40 152.5t-102.5 92.5t-129.5 30q-131 0 -220 -77t-128 -208zM299 1638h117l199 -430h-90z" />
<glyph unicode="&#xe9;" horiz-adv-x="1087" d="M102 0zM102 530q0 158 54.5 288t165 209t270.5 79q102 0 190 -44t141.5 -128t53.5 -197q0 -41 -10 -98h-742q-8 -47 -8 -107q0 -213 98.5 -347t276.5 -134q199 0 336 182l57 -69q-70 -90 -168 -147.5t-225 -57.5q-160 0 -270.5 78t-165 208t-54.5 285zM244 729h620v10 q0 90 -40 152.5t-102.5 92.5t-129.5 30q-131 0 -220 -77t-128 -208zM520 1208l199 434h117l-226 -434h-90z" />
<glyph unicode="&#xea;" horiz-adv-x="1087" d="M102 0zM102 530q0 158 54.5 288t165 209t270.5 79q102 0 190 -44t141.5 -128t53.5 -197q0 -41 -10 -98h-742q-8 -47 -8 -107q0 -213 98.5 -347t276.5 -134q199 0 336 182l57 -69q-70 -90 -168 -147.5t-225 -57.5q-160 0 -270.5 78t-165 208t-54.5 285zM244 729h620v10 q0 90 -40 152.5t-102.5 92.5t-129.5 30q-131 0 -220 -77t-128 -208zM301 1208l215 430h106l215 -430h-90l-178 340l-178 -340h-90z" />
<glyph unicode="&#xeb;" horiz-adv-x="1087" d="M102 0zM102 530q0 158 54.5 288t165 209t270.5 79q102 0 190 -44t141.5 -128t53.5 -197q0 -41 -10 -98h-742q-8 -47 -8 -107q0 -213 98.5 -347t276.5 -134q199 0 336 182l57 -69q-70 -90 -168 -147.5t-225 -57.5q-160 0 -270.5 78t-165 208t-54.5 285zM244 729h620v10 q0 90 -40 152.5t-102.5 92.5t-129.5 30q-131 0 -220 -77t-128 -208zM305 1556q0 33 23.5 57.5t56.5 24.5q35 0 58.5 -23.5t23.5 -58.5q0 -31 -25 -54t-57 -23q-33 0 -56.5 23.5t-23.5 53.5zM673 1556q0 33 24 57.5t56 24.5q35 0 58.5 -23.5t23.5 -58.5q0 -31 -24.5 -54 t-57.5 -23q-32 0 -56 23.5t-24 53.5z" />
<glyph unicode="&#xec;" horiz-adv-x="555" d="M8 0zM8 1638h117l199 -430h-90zM221 0v1065h111v-1065h-111z" />
<glyph unicode="&#xed;" horiz-adv-x="555" d="M221 0v1065h111v-1065h-111zM221 0zM229 1208l199 434h117l-226 -434h-90z" />
<glyph unicode="&#xee;" horiz-adv-x="555" d="M10 0zM11 1208l215 430h106l215 -430h-90l-178 340l-178 -340h-90zM221 0v1065h111v-1065h-111z" />
<glyph unicode="&#xef;" horiz-adv-x="555" d="M14 0zM15 1556q0 33 23.5 57.5t56.5 24.5q35 0 58.5 -23.5t23.5 -58.5q0 -31 -25 -54t-57 -23q-33 0 -56.5 23.5t-23.5 53.5zM221 0v1065h111v-1065h-111zM383 1556q0 33 24 57.5t56 24.5q35 0 58.5 -23.5t23.5 -58.5q0 -31 -24.5 -54t-57.5 -23q-32 0 -56 23.5t-24 53.5 z" />
<glyph unicode="&#xf0;" horiz-adv-x="1236" d="M102 532q0 156 56.5 287t167 209t262.5 78q88 0 165.5 -33t139.5 -90q-98 242 -295 397l-285 -168l-39 72l250 148q-131 82 -286 122l38 88q190 -51 347 -155l260 153l37 -71l-228 -133q191 -154 289 -375t98 -465q0 -190 -60.5 -335.5t-169 -224.5t-247.5 -79 q-162 0 -274.5 78t-169 209t-56.5 288zM217 532q0 -209 99.5 -345t285.5 -136q166 0 264.5 142.5t98.5 396.5q0 115 -21 215q-72 109 -160 158t-196 49q-176 0 -273.5 -132t-97.5 -348z" />
<glyph unicode="&#xf1;" horiz-adv-x="1177" d="M205 0v1065h90l16 -125q197 166 389 166q162 0 222.5 -83t60.5 -243v-780h-111v776q0 121 -43 177.5t-145 56.5q-84 0 -173 -41t-196 -129v-840h-110zM205 0zM273 1300q10 125 56 193t128 68q55 0 89 -28t71 -79q31 -41 53 -60.5t53 -19.5q47 0 69.5 42t35.5 145l79 -9 q-10 -125 -56 -192.5t-128 -67.5q-57 0 -91 28t-77 83q-29 39 -49 57.5t-49 18.5q-47 0 -69.5 -42t-35.5 -145z" />
<glyph unicode="&#xf2;" horiz-adv-x="1183" d="M102 0zM102 530q0 158 54.5 288t165 209t270.5 79t270.5 -78t164.5 -208t54 -285q0 -158 -54 -289t-164.5 -209t-270.5 -78t-270.5 78t-165 208t-54.5 285zM217 532q0 -213 98.5 -347t276.5 -134t276.5 134t98.5 347q0 211 -99.5 346.5t-275.5 135.5t-275.5 -135.5 t-99.5 -346.5zM321 1638h117l199 -430h-90z" />
<glyph unicode="&#xf3;" horiz-adv-x="1183" d="M102 0zM102 530q0 158 54.5 288t165 209t270.5 79t270.5 -78t164.5 -208t54 -285q0 -158 -54 -289t-164.5 -209t-270.5 -78t-270.5 78t-165 208t-54.5 285zM217 532q0 -213 98.5 -347t276.5 -134t276.5 134t98.5 347q0 211 -99.5 346.5t-275.5 135.5t-275.5 -135.5 t-99.5 -346.5zM542 1208l199 434h117l-226 -434h-90z" />
<glyph unicode="&#xf4;" horiz-adv-x="1183" d="M102 0zM102 530q0 158 54.5 288t165 209t270.5 79t270.5 -78t164.5 -208t54 -285q0 -158 -54 -289t-164.5 -209t-270.5 -78t-270.5 78t-165 208t-54.5 285zM217 532q0 -213 98.5 -347t276.5 -134t276.5 134t98.5 347q0 211 -99.5 346.5t-275.5 135.5t-275.5 -135.5 t-99.5 -346.5zM324 1208l215 430h106l215 -430h-90l-178 340l-178 -340h-90z" />
<glyph unicode="&#xf5;" horiz-adv-x="1183" d="M102 0zM102 530q0 158 54.5 288t165 209t270.5 79t270.5 -78t164.5 -208t54 -285q0 -158 -54 -289t-164.5 -209t-270.5 -78t-270.5 78t-165 208t-54.5 285zM217 532q0 -213 98.5 -347t276.5 -134t276.5 134t98.5 347q0 211 -99.5 346.5t-275.5 135.5t-275.5 -135.5 t-99.5 -346.5zM275 1300q10 125 56 193t128 68q55 0 89 -28t71 -79q31 -41 53 -60.5t53 -19.5q47 0 69.5 42t35.5 145l79 -9q-10 -125 -56 -192.5t-128 -67.5q-57 0 -91 28t-77 83q-29 39 -49 57.5t-49 18.5q-47 0 -69.5 -42t-35.5 -145z" />
<glyph unicode="&#xf6;" horiz-adv-x="1183" d="M102 0zM102 530q0 158 54.5 288t165 209t270.5 79t270.5 -78t164.5 -208t54 -285q0 -158 -54 -289t-164.5 -209t-270.5 -78t-270.5 78t-165 208t-54.5 285zM217 532q0 -213 98.5 -347t276.5 -134t276.5 134t98.5 347q0 211 -99.5 346.5t-275.5 135.5t-275.5 -135.5 t-99.5 -346.5zM328 1556q0 33 23.5 57.5t56.5 24.5q35 0 58.5 -23.5t23.5 -58.5q0 -31 -25 -54t-57 -23q-33 0 -56.5 23.5t-23.5 53.5zM696 1556q0 33 24 57.5t56 24.5q35 0 58.5 -23.5t23.5 -58.5q0 -31 -24.5 -54t-57.5 -23q-32 0 -56 23.5t-24 53.5z" />
<glyph unicode="&#xf7;" d="M68 500v90h888v-90h-888zM424 156q0 35 25.5 61.5t60.5 26.5q37 0 62.5 -27t25.5 -61q0 -35 -25.5 -60.5t-62.5 -25.5q-35 0 -60.5 25.5t-25.5 60.5zM424 934q0 35 25.5 61.5t60.5 26.5q37 0 62.5 -26.5t25.5 -61.5t-25.5 -60.5t-62.5 -25.5q-35 0 -60.5 25.5t-25.5 60.5 z" />
<glyph unicode="&#xf8;" horiz-adv-x="1183" d="M102 10l111 133q-55 78 -83 177.5t-28 209.5q0 158 54.5 288t165 209t270.5 79q197 0 323 -123l103 123l63 -53l-110 -133q55 -78 82.5 -177.5t27.5 -207.5q0 -158 -54 -289t-164.5 -209t-270.5 -78q-197 0 -322 121l-102 -123zM217 532q0 -178 70 -301l561 672 q-98 111 -256 111q-176 0 -275.5 -135.5t-99.5 -346.5zM338 160q98 -109 254 -109q178 0 276.5 134t98.5 347q0 180 -70 299z" />
<glyph unicode="&#xf9;" horiz-adv-x="1177" d="M195 0zM195 285v780h110v-776q0 -121 43 -177.5t146 -56.5q84 0 173 41t195 129v840h111v-1065h-90l-17 125q-197 -166 -389 -166q-162 0 -222 83t-60 243zM319 1638h117l199 -430h-90z" />
<glyph unicode="&#xfa;" horiz-adv-x="1177" d="M195 0zM195 285v780h110v-776q0 -121 43 -177.5t146 -56.5q84 0 173 41t195 129v840h111v-1065h-90l-17 125q-197 -166 -389 -166q-162 0 -222 83t-60 243zM540 1208l199 434h117l-226 -434h-90z" />
<glyph unicode="&#xfb;" horiz-adv-x="1177" d="M195 0zM195 285v780h110v-776q0 -121 43 -177.5t146 -56.5q84 0 173 41t195 129v840h111v-1065h-90l-17 125q-197 -166 -389 -166q-162 0 -222 83t-60 243zM322 1208l215 430h106l215 -430h-90l-178 340l-178 -340h-90z" />
<glyph unicode="&#xfc;" horiz-adv-x="1177" d="M195 0zM195 285v780h110v-776q0 -121 43 -177.5t146 -56.5q84 0 173 41t195 129v840h111v-1065h-90l-17 125q-197 -166 -389 -166q-162 0 -222 83t-60 243zM326 1556q0 33 23.5 57.5t56.5 24.5q35 0 58.5 -23.5t23.5 -58.5q0 -31 -25 -54t-57 -23q-33 0 -56.5 23.5 t-23.5 53.5zM694 1556q0 33 24 57.5t56 24.5q35 0 58.5 -23.5t23.5 -58.5q0 -31 -24.5 -54t-57.5 -23q-32 0 -56 23.5t-24 53.5z" />
<glyph unicode="&#xfd;" horiz-adv-x="1034" d="M41 0zM41 -485l22 96q37 -10 76 -10q66 0 114 24.5t92 88t89 182.5l41 110l-409 1059h116l353 -907l346 907h112l-467 -1217q-72 -186 -162 -268t-225 -82q-49 0 -98 17zM477 1208l199 434h117l-226 -434h-90z" />
<glyph unicode="&#xfe;" horiz-adv-x="1157" d="M205 -485v2123h110v-659q141 127 324 127q123 0 217 -64.5t146.5 -186.5t52.5 -290q0 -197 -64.5 -333t-180.5 -204.5t-269 -68.5q-123 0 -226 51v-495h-110zM315 106q90 -55 224 -55q202 0 301.5 140.5t99.5 373.5q0 156 -43 256.5t-111.5 144.5t-146.5 44 q-94 0 -165 -29t-159 -98v-777z" />
<glyph unicode="&#xff;" horiz-adv-x="1034" d="M41 0zM41 -485l22 96q37 -10 76 -10q66 0 114 24.5t92 88t89 182.5l41 110l-409 1059h116l353 -907l346 907h112l-467 -1217q-72 -186 -162 -268t-225 -82q-49 0 -98 17zM262 1556q0 33 23.5 57.5t56.5 24.5q35 0 58.5 -23.5t23.5 -58.5q0 -31 -25 -54t-57 -23 q-33 0 -56.5 23.5t-23.5 53.5zM630 1556q0 33 24 57.5t56 24.5q35 0 58.5 -23.5t23.5 -58.5q0 -31 -24.5 -54t-57.5 -23q-32 0 -56 23.5t-24 53.5z" />
<glyph unicode="&#x152;" horiz-adv-x="2050" d="M123 694q0 205 74.5 362.5t221 247t355.5 89.5h1112v-95h-661v-514h579v-94h-579v-596h702v-94h-1153q-209 0 -355.5 90t-221 248t-74.5 356zM238 696q0 -274 140 -438t396 -164h336v1204h-336q-256 0 -396 -161.5t-140 -440.5z" />
<glyph unicode="&#x153;" horiz-adv-x="1951" d="M102 530q0 158 54.5 288t165 209t270.5 79q156 0 265.5 -76t166.5 -205q59 129 167.5 205t264.5 76q102 0 190.5 -44t141.5 -128t53 -197q0 -41 -10 -98h-741q-8 -47 -9 -107q0 -213 98.5 -347t276.5 -134q193 0 336 189l57 -70q-160 -211 -393 -211q-156 0 -265.5 76 t-166.5 205q-57 -131 -166.5 -206t-265.5 -75q-160 0 -270.5 78t-165 208t-54.5 285zM217 532q0 -213 98.5 -347t276.5 -134t276.5 134t98.5 347q0 211 -99.5 346.5t-275.5 135.5t-275.5 -135.5t-99.5 -346.5zM1108 729h621v10q0 90 -40 152.5t-102.5 92.5t-130.5 30 q-131 0 -220 -77t-128 -208z" />
<glyph unicode="&#x178;" horiz-adv-x="1286" d="M72 0zM72 1393h133l438 -723l442 723h129l-514 -822v-571h-114v565zM379 1675q0 33 23.5 57.5t56.5 24.5q35 0 58.5 -23.5t23.5 -58.5q0 -31 -25 -54.5t-57 -23.5q-33 0 -56.5 24t-23.5 54zM747 1675q0 33 24 57.5t56 24.5q35 0 58.5 -23.5t23.5 -58.5q0 -31 -24.5 -54.5 t-57.5 -23.5q-32 0 -56 24t-24 54z" />
<glyph unicode="&#x2c6;" d="M244 1208l215 430h106l215 -430h-90l-178 340l-178 -340h-90z" />
<glyph unicode="&#x2dc;" d="M195 1300q10 125 56 193t128 68q55 0 89 -28t71 -79q31 -41 53 -60.5t53 -19.5q47 0 69.5 42t35.5 145l79 -9q-10 -125 -56 -192.5t-128 -67.5q-57 0 -91 28t-77 83q-29 39 -49 57.5t-49 18.5q-47 0 -69.5 -42t-35.5 -145z" />
<glyph unicode="&#x2000;" horiz-adv-x="913" />
<glyph unicode="&#x2001;" horiz-adv-x="1827" />
<glyph unicode="&#x2002;" horiz-adv-x="913" />
<glyph unicode="&#x2003;" horiz-adv-x="1827" />
<glyph unicode="&#x2004;" horiz-adv-x="609" />
<glyph unicode="&#x2005;" horiz-adv-x="456" />
<glyph unicode="&#x2006;" horiz-adv-x="304" />
<glyph unicode="&#x2007;" horiz-adv-x="304" />
<glyph unicode="&#x2008;" horiz-adv-x="228" />
<glyph unicode="&#x2009;" horiz-adv-x="365" />
<glyph unicode="&#x200a;" horiz-adv-x="101" />
<glyph unicode="&#x2010;" horiz-adv-x="512" d="M41 502v90h430v-90h-430z" />
<glyph unicode="&#x2011;" horiz-adv-x="512" d="M41 502v90h430v-90h-430z" />
<glyph unicode="&#x2012;" horiz-adv-x="512" d="M41 502v90h430v-90h-430z" />
<glyph unicode="&#x2013;" d="M0 502v90h1024v-90h-1024z" />
<glyph unicode="&#x2014;" horiz-adv-x="2048" d="M256 502v90h1536v-90h-1536z" />
<glyph unicode="&#x2018;" horiz-adv-x="512" d="M193 1171q0 109 50 195t136 131l45 -59q-131 -86 -131 -240q0 -63 20 -137l-104 -12q-16 69 -16 122z" />
<glyph unicode="&#x2019;" horiz-adv-x="512" d="M88 1108q131 86 131 240q0 63 -20 137l104 12q16 -70 16 -123q0 -109 -50 -194.5t-136 -130.5z" />
<glyph unicode="&#x201a;" horiz-adv-x="512" d="M88 0zM88 -240q131 84 131 238q0 66 -20 139l104 13q16 -70 16 -123q0 -109 -50 -195t-136 -131z" />
<glyph unicode="&#x201c;" horiz-adv-x="819" d="M193 1049zM193 1171q0 109 50 195t136 131l45 -59q-131 -86 -131 -240q0 -63 20 -137l-104 -12q-16 69 -16 122zM500 1171q0 109 50 195t136 131l45 -59q-131 -86 -131 -240q0 -63 20 -137l-104 -12q-16 69 -16 122z" />
<glyph unicode="&#x201d;" horiz-adv-x="819" d="M88 1049zM88 1108q131 86 131 240q0 63 -20 137l104 12q16 -70 16 -123q0 -109 -50 -194.5t-136 -130.5zM395 1108q131 86 131 240q0 63 -20 137l104 12q16 -70 16 -123q0 -109 -50 -194.5t-136 -130.5z" />
<glyph unicode="&#x201e;" horiz-adv-x="819" d="M88 0zM88 -240q131 84 131 238q0 66 -20 139l104 13q16 -70 16 -123q0 -109 -50 -195t-136 -131zM395 -240q131 84 131 238q0 66 -20 139l104 13q16 -70 16 -123q0 -109 -50 -195t-136 -131z" />
<glyph unicode="&#x2022;" horiz-adv-x="966" d="M281 547q0 84 59 144.5t141 60.5q84 0 144.5 -60.5t60.5 -144.5q0 -82 -60.5 -141.5t-144.5 -59.5q-82 0 -141 59.5t-59 141.5z" />
<glyph unicode="&#x2026;" horiz-adv-x="1333" d="M170 66q0 35 25.5 61.5t60.5 26.5q37 0 62.5 -27t25.5 -61q0 -35 -25.5 -60.5t-62.5 -25.5q-35 0 -60.5 25.5t-25.5 60.5zM580 66q0 35 25.5 61.5t60.5 26.5q37 0 62.5 -27t25.5 -61q0 -35 -26 -60.5t-62 -25.5q-35 0 -60.5 25.5t-25.5 60.5zM989 66q0 35 25.5 61.5 t60.5 26.5q37 0 62.5 -27t25.5 -61q0 -35 -25.5 -60.5t-62.5 -25.5q-35 0 -60.5 25.5t-25.5 60.5z" />
<glyph unicode="&#x202f;" horiz-adv-x="365" />
<glyph unicode="&#x2039;" horiz-adv-x="634" d="M82 530l407 433l68 -66l-340 -367l340 -368l-68 -64z" />
<glyph unicode="&#x203a;" horiz-adv-x="634" d="M78 164l340 366l-340 369l67 64l408 -433l-408 -432z" />
<glyph unicode="&#x205f;" horiz-adv-x="456" />
<glyph unicode="&#x20ac;" d="M45 500v92h172q-2 33 -2 102q0 41 4 115h-174v92h182q31 256 143.5 388t303.5 132q109 0 184.5 -44t132.5 -122l-69 -57q-49 61 -106.5 95t-141.5 34q-281 0 -334 -426h426v-92h-432q-4 -74 -4 -117q0 -68 2 -100h434v-92h-426q25 -227 108.5 -333t225.5 -106 q86 0 143 33t105 96l69 -57q-55 -78 -131 -122t-186 -44q-193 0 -306.5 135.5t-142.5 397.5h-180z" />
<glyph unicode="&#x2122;" horiz-adv-x="1409" d="M82 1325v68h450v-68h-180v-489h-88v489h-182zM614 836v557h80l195 -277l194 277h80v-557h-88v403l-153 -215h-66l-154 215v-403h-88z" />
<glyph unicode="&#x25fc;" horiz-adv-x="1064" d="M0 0v1065h1065v-1065h-1065z" />
<glyph unicode="&#xfb03;" horiz-adv-x="2127" d="M154 0zM154 975v49l174 37v129q0 449 344 448q49 0 98 -16l-22 -90q-37 10 -76 10q-125 0 -179.5 -86t-54.5 -270v-121h328v-90h-328v-975h-110v975h-174zM940 975v49l174 37v129q0 449 344 448q49 0 98 -16l-22 -90q-37 10 -76 10q-125 0 -179.5 -86t-54.5 -270v-121 h328v-90h-328v-975h-110v975h-174zM1770 1556q0 33 23.5 57.5t55.5 24.5q35 0 58.5 -23.5t23.5 -58.5q0 -31 -24.5 -54t-57.5 -23q-32 0 -55.5 23.5t-23.5 53.5zM1794 0v1065h111v-1065h-111z" />
<glyph unicode="&#xfb04;" horiz-adv-x="2093" d="M154 0zM154 975v49l174 37v129q0 449 344 448q49 0 98 -16l-22 -90q-37 10 -76 10q-125 0 -179.5 -86t-54.5 -270v-121h328v-90h-328v-975h-110v975h-174zM940 975v49l174 37v129q0 449 344 448q49 0 98 -16l-22 -90q-37 10 -76 10q-125 0 -179.5 -86t-54.5 -270v-121 h328v-90h-328v-975h-110v975h-174zM1778 0v1638h110v-1638h-110z" />
</font>
</defs>
</svg>
