<?xml version="1.0" standalone="no"?>
<!DOCTYPE svg PUBLIC "-//W3C//DTD SVG 1.1//EN" "http://www.w3.org/Graphics/SVG/1.1/DTD/svg11.dtd" >
<svg xmlns="http://www.w3.org/2000/svg" xmlns:xlink="http://www.w3.org/1999/xlink" version="1.1">
<metadata></metadata>
<defs>
<font id="martel_sansextrabold" horiz-adv-x="1300" >
<font-face units-per-em="2048" ascent="1638" descent="-410" />
<missing-glyph horiz-adv-x="512" />
<glyph unicode="&#xfb01;" horiz-adv-x="1548" d="M53 0zM53 922v133l174 65v82q0 217 109.5 333t335.5 116q80 0 200 -17l-22 -221q-76 10 -127 10q-182 0 -182 -225v-51h327v-225h-327v-922h-314v922h-174zM1034 1530q0 76 53.5 129t129.5 53t130 -53t54 -129t-54 -129t-130 -53t-129.5 53t-53.5 129zM1061 0v1147h313 v-1147h-313z" />
<glyph unicode="&#xfb02;" horiz-adv-x="1542" d="M53 0zM53 922v133l174 65v82q0 217 109.5 333t335.5 116q80 0 200 -17l-22 -221q-76 10 -127 10q-182 0 -182 -225v-51h327v-225h-327v-922h-314v922h-174zM1059 0v1638h313v-1638h-313z" />
<glyph horiz-adv-x="0" />
<glyph unicode="&#xd;" horiz-adv-x="1011" />
<glyph unicode=" "  horiz-adv-x="512" />
<glyph unicode="&#x09;" horiz-adv-x="512" />
<glyph unicode="&#xa0;" horiz-adv-x="512" />
<glyph unicode="!" horiz-adv-x="679" d="M147 178q0 80 56.5 136.5t136.5 56.5t136 -56.5t56 -136.5t-56 -136t-136 -56t-136.5 56t-56.5 136zM164 1393h334l-21 -936h-272z" />
<glyph unicode="&#x22;" horiz-adv-x="1226" d="M188 827zM188 1567h334l-47 -740h-237zM704 1567h334l-47 -740h-237z" />
<glyph unicode="#" horiz-adv-x="1607" d="M45 330l70 229h209l84 275h-207l71 229h207l101 330h292l-100 -330h289l100 330h293l-100 -330h207l-72 -229h-207l-84 -275h209l-72 -229h-209l-100 -330h-293l101 330h-289l-101 -330h-292l100 330h-207zM616 559h289l84 275h-289z" />
<glyph unicode="$" d="M121 123l67 223q109 -49 206.5 -71.5t199.5 -22.5q115 0 192.5 39t77.5 110q0 49 -36.5 85t-92 60.5t-153.5 57.5q-131 43 -214 83t-142.5 110.5t-59.5 177.5q0 152 101.5 251t279.5 132v280h276v-272q168 -18 307 -96l-69 -221q-172 88 -334 88q-111 0 -178.5 -37 t-67.5 -105q0 -66 65.5 -103.5t205.5 -84.5q135 -47 220 -88t146.5 -115t61.5 -184q0 -146 -91.5 -243t-265.5 -136v-293h-276v270q-254 12 -426 105z" />
<glyph unicode="%" horiz-adv-x="2211" d="M39 0zM39 969q0 119 47 218t141 160q94 60 230 60q137 0 231 -60t141 -160q47 -99 48 -216q0 -117 -48 -216q-47 -99 -141 -160q-94 -60 -231 -60q-136 0 -230 59t-141 159q-47 99 -47 216zM322 971q0 -123 30 -181q31 -58 103 -59q73 1 104 59t31 181t-31 182t-104 59 q-72 0 -103 -59t-30 -182zM582 49l819 1417l227 -137l-819 -1417zM1337 412q0 119 47 218t142 160q94 60 229 60q137 0 232 -60q94 -60 141 -160q47 -99 47 -216t-47 -216t-141 -160q-94 -60 -232 -61q-135 1 -229 60t-142 159q-47 99 -47 216zM1620 414q0 -123 31 -182 q31 -58 102 -58q74 0 105 58t30 182q0 123 -30 182q-31 59 -105 59q-72 0 -102 -59q-31 -59 -31 -182z" />
<glyph unicode="&#x26;" horiz-adv-x="1505" d="M31 365q0 281 301 423q-68 76 -96.5 134.5t-28.5 130.5q0 100 46 183t141 132t233 49q131 0 224 -44t140 -117.5t47 -159.5q0 -121 -69.5 -211t-218.5 -166l215 -238q92 160 153 393l299 -30q-35 -147 -104.5 -289.5t-167.5 -259.5q94 -76 190 -76q49 0 97 10l53 -219 q-76 -26 -187 -26q-96 0 -177 29.5t-169 101.5q-195 -141 -409 -142q-162 0 -277.5 50.5t-175 139.5t-59.5 202zM354 393q0 -78 58.5 -133t162.5 -55q113 0 213 74l-296 329q-137 -98 -138 -215zM514 1069q0 -49 18.5 -88t61.5 -90q74 47 105.5 90t31.5 98q0 43 -28.5 75 t-79.5 32q-54 0 -81.5 -34t-27.5 -83z" />
<glyph unicode="'" horiz-adv-x="710" d="M188 1567h334l-47 -740h-237z" />
<glyph unicode="(" horiz-adv-x="712" d="M113 602q0 268 98 490.5t252 369.5l182 -151q-92 -117 -154.5 -310.5t-62.5 -398.5q0 -211 62.5 -400.5t152.5 -310.5l-180 -149q-154 147 -252 369.5t-98 490.5z" />
<glyph unicode=")" horiz-adv-x="712" d="M66 -106q92 117 154.5 310t62.5 398q0 211 -62.5 400.5t-152.5 310.5l180 149q154 -147 252 -369.5t98 -490.5t-98.5 -490.5t-251.5 -369.5z" />
<glyph unicode="*" horiz-adv-x="1099" d="M74 942l86 262l311 -164l-61 353h278l-57 -346l309 157l86 -262l-362 -49l272 -246l-240 -166l-147 318l-148 -318l-237 166l276 248z" />
<glyph unicode="+" d="M66 500v223h464v463h240v-463h465v-223h-465v-482h-240v482h-464z" />
<glyph unicode="," horiz-adv-x="681" d="M88 -240q119 90 119 283q0 133 -53 270l329 47q33 -123 33 -227q0 -176 -87 -299t-243 -205z" />
<glyph unicode="-" horiz-adv-x="595" d="M41 477v223h514v-223h-514z" />
<glyph unicode="." horiz-adv-x="681" d="M147 178q0 80 56.5 136.5t136.5 56.5t136 -56.5t56 -136.5t-56 -136t-136 -56t-136.5 56t-56.5 136z" />
<glyph unicode="/" horiz-adv-x="876" d="M-14 -483l587 1933h318l-590 -1933h-315z" />
<glyph unicode="0" d="M84 709q0 201 61.5 361.5t188.5 253.5t315 93t315.5 -93t188.5 -254t61 -361q0 -207 -61 -374t-188 -264.5t-316 -97.5q-188 0 -315 97.5t-188.5 264.5t-61.5 374zM410 709q0 -217 58 -358.5t183 -141.5t183.5 141.5t58.5 358.5q0 207 -58.5 340t-183.5 133t-183 -133.5 t-58 -339.5z" />
<glyph unicode="1" d="M219 0v227h326v918l-258 -33l-54 223l361 58l2 -2v2h272v-1166h324v-227h-973z" />
<glyph unicode="2" d="M90 1245q215 170 488 170q143 0 260.5 -50t187.5 -141t70 -210q0 -154 -91.5 -310.5t-283.5 -330.5l-152 -137v-5h613v-231h-1053v172l338 328q160 154 235.5 275.5t75.5 205.5q0 94 -64.5 147.5t-181.5 53.5q-94 0 -184 -38t-186 -112z" />
<glyph unicode="3" d="M88 86l68 219q197 -98 407 -98q129 0 200 53t71 143t-60.5 145.5t-167.5 55.5q-104 0 -223 -33l-23 228q158 39 232 64.5t120 69.5t46 120q0 57 -44 92t-122 35q-92 0 -187.5 -29t-203.5 -96l-72 211q199 150 479 149q141 0 249 -43t166 -122t58 -181q0 -98 -58 -177 t-163 -134q131 -37 214 -125t83 -211t-70.5 -226.5t-204.5 -164t-319 -60.5q-137 0 -262 29t-213 86z" />
<glyph unicode="4" d="M51 317v181l676 895h2h311v-844h228v-232h-228v-317h-323v317h-666zM358 549h359v223l8 285l-2 -2l-188 -275z" />
<glyph unicode="5" d="M117 86l67 219q188 -98 389 -98q141 0 215 60.5t74 164.5t-64.5 161.5t-199.5 57.5q-86 0 -170 -18.5t-184 -52.5l-47 34l65 779h881v-232h-596l-29 -284q66 10 115 10q172 0 297 -55.5t190.5 -154.5t65.5 -226q0 -131 -73 -241t-211 -174.5t-329 -64.5q-131 0 -250.5 29 t-205.5 86z" />
<glyph unicode="6" d="M100 547q0 242 107.5 426t308.5 296.5t473 147.5l45 -223q-229 -53 -363 -131t-194 -225q111 49 223 49q154 0 266.5 -64.5t172 -168t59.5 -218.5q0 -125 -65.5 -231.5t-190.5 -171t-293 -64.5q-250 0 -399.5 146.5t-149.5 431.5zM424 512q0 -152 61.5 -231.5 t163.5 -79.5q109 0 167 62.5t58 156.5q0 100 -55 167.5t-151 67.5q-141 0 -244 -102v-41z" />
<glyph unicode="7" d="M88 1161v232h1122v-191l-624 -1202h-371l664 1157v4h-791z" />
<glyph unicode="8" d="M104 348q0 223 248 354q-100 55 -153.5 128t-53.5 178q0 115 56.5 207t170 147t279.5 55q162 0 275.5 -51t170 -134t56.5 -179q0 -102 -59.5 -178t-175.5 -138q129 -61 202.5 -143t73.5 -207q0 -117 -59.5 -210t-181.5 -148.5t-302 -55.5t-304 52.5t-183.5 138.5 t-59.5 184zM428 365q0 -66 55.5 -113t167.5 -47q113 0 166 47t53 117q0 80 -65.5 130t-192.5 97q-88 -37 -136 -97.5t-48 -133.5zM469 1024q0 -63 56.5 -107.5t162.5 -89.5q74 47 107.5 101.5t33.5 107.5q0 63 -44 106.5t-134 43.5t-136 -47t-46 -115z" />
<glyph unicode="9" d="M100 948q0 125 65.5 232.5t190.5 172t293 64.5q250 0 399.5 -147.5t149.5 -431.5q0 -242 -107.5 -426.5t-308 -297t-473.5 -145.5l-45 224q229 51 362.5 128.5t194.5 227.5q-111 -49 -223 -49q-154 0 -266.5 64.5t-172 167t-59.5 216.5zM424 967q0 -100 55.5 -169 t151.5 -69q139 1 243 105v40q0 152 -60 232t-165 80q-109 0 -167 -62.5t-58 -156.5z" />
<glyph unicode=":" horiz-adv-x="681" d="M147 178q0 80 56.5 136.5t136.5 56.5t136 -56.5t56 -136.5t-56 -136t-136 -56t-136.5 56t-56.5 136zM147 956q0 80 56.5 136.5t136.5 56.5t136 -56.5t56 -136.5q0 -78 -56 -134t-136 -56t-136.5 56.5t-56.5 133.5z" />
<glyph unicode=";" horiz-adv-x="681" d="M88 -240q119 90 119 281q0 133 -53 270l329 45q33 -123 33 -225q0 -176 -86 -298t-244 -204zM147 956q0 80 56.5 136.5t136.5 56.5t136 -56.5t56 -136.5q0 -78 -56 -134t-136 -56t-136.5 56.5t-56.5 133.5z" />
<glyph unicode="&#x3c;" d="M66 494v215l1169 446v-237l-891 -316l891 -315v-238z" />
<glyph unicode="=" d="M66 258v223h1169v-223h-1169zM66 741v224h1169v-224h-1169z" />
<glyph unicode="&#x3e;" d="M66 49v238l890 315l-890 316v237l1169 -446v-215z" />
<glyph unicode="?" horiz-adv-x="1064" d="M143 1161v234q418 0 603.5 -106.5t185.5 -274.5q0 -139 -108.5 -234.5t-309.5 -158.5l-12 -164h-226l-18 377q193 33 271.5 69.5t78.5 112.5q0 145 -465 145zM199 178q0 80 56 136.5t136 56.5t136.5 -56.5t56.5 -136.5t-56.5 -136t-136.5 -56t-136 56t-56 136z" />
<glyph unicode="@" horiz-adv-x="1906" d="M90 535q0 279 130 469t341 283t457 93q248 0 429 -95t275.5 -256t94.5 -353q0 -184 -74 -315.5t-188.5 -199t-237.5 -67.5q-160 0 -227 111q-63 -53 -126 -83t-133 -30q-98 0 -160.5 65.5t-62.5 166.5q0 86 42 146t138.5 106.5t264.5 93.5v4q0 59 -22.5 96t-84.5 37 q-63 0 -128.5 -27.5t-149.5 -95.5l-52 184q178 141 371 142q162 0 231.5 -87t69.5 -268v-276q0 -45 14.5 -63.5t49.5 -18.5q43 0 87 44t73.5 131t29.5 206q0 135 -62.5 244.5t-180 173t-279.5 63.5q-184 0 -332.5 -69.5t-235.5 -211t-87 -346.5q0 -201 79.5 -340t217 -208.5 t307.5 -69.5q231 0 417 111l89 -191q-225 -139 -508 -139q-227 0 -428 92t-325 281.5t-124 466.5zM844 350q-1 -55 65 -55q61 0 144 63v138q-123 -43 -166 -77t-43 -69z" />
<glyph unicode="A" horiz-adv-x="1419" d="M18 0l537 1411h309l539 -1411h-330l-119 350h-491l-119 -350h-326zM539 573h340l-170 504z" />
<glyph unicode="B" horiz-adv-x="1386" d="M195 0v1393h534q254 0 382 -84t128 -260q0 -113 -67.5 -196t-194.5 -116q158 -30 240.5 -125.5t82.5 -232.5q0 -184 -145 -281.5t-426 -97.5h-534zM518 227h211q119 0 183.5 49.5t64.5 147.5q0 199 -248 199h-211v-396zM518 850h211q186 0 186 160q0 84 -47 119.5 t-139 35.5h-211v-315z" />
<glyph unicode="C" horiz-adv-x="1402" d="M98 698q0 195 89 359t265.5 262t426.5 98q125 0 235.5 -29.5t192.5 -82.5l-76 -226q-154 102 -352 103q-143 0 -247 -64.5t-157 -174t-53 -247.5q0 -215 113.5 -351t322.5 -136q111 0 210 31.5t175 78.5l70 -219q-88 -55 -207 -91t-248 -36q-248 0 -419 99.5t-256 264.5 t-85 361z" />
<glyph unicode="D" horiz-adv-x="1570" d="M195 0v1393h555q229 0 393 -90.5t247 -248t83 -356.5q0 -203 -83 -361.5t-246 -247.5t-394 -89h-555zM518 231h232q188 0 292.5 126t104.5 339q0 211 -104.5 338t-292.5 127h-232v-930z" />
<glyph unicode="E" horiz-adv-x="1222" d="M195 0v1393h880v-228h-557v-315h475v-227h-475v-396h598v-227h-921z" />
<glyph unicode="F" horiz-adv-x="1120" d="M195 0v1393h880v-232h-557v-381h475v-229h-475v-551h-323z" />
<glyph unicode="G" horiz-adv-x="1458" d="M98 698q0 195 89 359t265.5 262t426.5 98q125 0 235.5 -29.5t192.5 -82.5l-76 -226q-154 102 -352 103q-143 0 -247 -64.5t-157 -174t-53 -247.5q0 -215 113.5 -351t322.5 -136q84 0 180 14v457h314v-606q-96 -45 -225.5 -73t-268.5 -28q-248 0 -419 99.5t-256 264.5 t-85 361z" />
<glyph unicode="H" horiz-adv-x="1654" d="M195 0v1393h323v-541h617v541h323v-1393h-323v621h-617v-621h-323z" />
<glyph unicode="I" horiz-adv-x="714" d="M195 0v1393h323v-1393h-323z" />
<glyph unicode="J" horiz-adv-x="714" d="M-131 -475l22 229q72 -10 123 -10q94 0 137.5 57.5t43.5 175.5v1416h323v-1420q0 -225 -111.5 -345t-338.5 -120q-80 1 -199 17z" />
<glyph unicode="K" horiz-adv-x="1484" d="M195 0v1393h323v-621l512 621h373l-569 -641l628 -752h-391l-553 721v-721h-323z" />
<glyph unicode="L" horiz-adv-x="1148" d="M195 0v1393h323v-1166h598v-227h-921z" />
<glyph unicode="M" horiz-adv-x="1865" d="M195 0v1393h303l434 -701l434 701h303v-1393h-315v397l20 496l-321 -526h-242l-328 534l27 -504v-397h-315z" />
<glyph unicode="N" horiz-adv-x="1654" d="M195 0v1393h290l674 -924l-24 471v453h323v-1393l-289 -2l-675 930l24 -463v-465h-323z" />
<glyph unicode="O" horiz-adv-x="1669" d="M98 696q0 199 85 363t252 261t401 97q233 0 400 -97t252 -261t85 -363q0 -201 -85 -365.5t-251 -261t-401 -96.5q-234 0 -401 97.5t-252 261.5t-85 364zM422 696q0 -139 48 -249.5t142.5 -174t223.5 -63.5t223 63.5t142 174t48 249.5t-48 249t-142 173.5t-223 63.5 t-223.5 -63.5t-142.5 -173t-48 -249.5z" />
<glyph unicode="P" horiz-adv-x="1361" d="M195 0v1393h550q287 0 421 -111t134 -338t-134 -337.5t-421 -110.5h-227v-496h-323zM518 723h227q121 2 176.5 54t55.5 167q0 113 -55.5 167t-176.5 54h-227v-442z" />
<glyph unicode="Q" horiz-adv-x="1669" d="M98 696q0 199 85 363t252 261t401 97q233 0 400 -97t252 -261t85 -363q0 -217 -99.5 -391t-285.5 -260l100 -119q80 -96 155 -135t152 -39q129 0 242 68l33 -221q-76 -47 -143.5 -67.5t-141.5 -20.5q-152 0 -270.5 48t-210.5 158l-217 258q-16 -2 -51 -2 q-233 0 -400.5 97.5t-252.5 261.5t-85 364zM422 696q0 -139 48 -249.5t142.5 -174t223.5 -63.5t223 63.5t142 174t48 249.5t-48 249t-142 173.5t-223 63.5t-223.5 -63.5t-142.5 -173t-48 -249.5z" />
<glyph unicode="R" horiz-adv-x="1488" d="M195 0v1393h534q285 0 418 -101.5t133 -308.5q0 -291 -233 -381l405 -602h-373l-348 537h-213v-537h-323zM518 764h211q119 0 173 49t54 152q0 102 -54 151t-173 49h-211v-401z" />
<glyph unicode="S" horiz-adv-x="1245" d="M86 78l68 223q109 -47 206 -69.5t203 -22.5q117 0 197 44t80 126q0 53 -38 92t-94.5 64.5t-156.5 62.5q-133 49 -217 92t-143.5 118t-59.5 187q0 201 150.5 311.5t404.5 110.5q113 0 220.5 -26.5t193.5 -75.5l-70 -221q-180 88 -334 88q-113 0 -181.5 -43t-68.5 -123 q0 -68 66 -109t209 -94q137 -51 224 -95t149.5 -122t62.5 -197q0 -201 -153.5 -313.5t-436.5 -112.5q-139 0 -264 28t-217 77z" />
<glyph unicode="T" horiz-adv-x="1222" d="M49 1161v232h1127v-232h-404v-1161h-323v1161h-400z" />
<glyph unicode="U" horiz-adv-x="1613" d="M174 549v844h324v-842q0 -342 309 -342q307 0 307 342v842h324v-840q0 -270 -162 -425t-469 -155t-470 154t-163 422z" />
<glyph unicode="V" horiz-adv-x="1458" d="M29 1393h329l373 -1098l371 1098h325l-532 -1405h-332z" />
<glyph unicode="W" horiz-adv-x="2232" d="M29 1393h329l285 -1067l305 1067h309l308 -1076l303 1076h334l-476 -1405h-325l-299 1009l-299 -1009h-328z" />
<glyph unicode="X" horiz-adv-x="1507" d="M41 0l522 717l-491 676h381l299 -478l299 478h374l-491 -670l532 -723h-381l-333 510l-336 -510h-375z" />
<glyph unicode="Y" horiz-adv-x="1394" d="M20 1393h342l334 -600l338 600h338l-514 -830v-563h-323v557z" />
<glyph unicode="Z" horiz-adv-x="1429" d="M113 0v178l807 983h-781v232h1190v-195l-803 -967h832v-231h-1245z" />
<glyph unicode="[" horiz-adv-x="792" d="M147 -260v1683h498v-213l-184 -20v-1217l184 -20v-213h-498z" />
<glyph unicode="\" horiz-adv-x="876" d="M-14 1450h317l588 -1933h-316z" />
<glyph unicode="]" horiz-adv-x="792" d="M147 -45l185 18v1217l-185 18v215h498v-1683h-498v215z" />
<glyph unicode="^" d="M213 297l299 565h276l299 -565h-292l-144 326l-145 -326h-293z" />
<glyph unicode="_" horiz-adv-x="1024" d="M0 -330h1024v-223h-1024v223z" />
<glyph unicode="`" horiz-adv-x="1024" d="M236 1642h335l199 -434h-242z" />
<glyph unicode="a" horiz-adv-x="1230" d="M86 262q0 123 63.5 198t174 121t327.5 107l86 25v26q0 203 -176 203q-88 0 -182 -38t-215 -128l-70 213q283 184 565 185q190 0 290 -103.5t100 -349.5v-426q0 -45 17 -64.5t58 -19.5q35 0 80 12l13 -213q-113 -26 -206 -26h-7q-190 0 -244 131q-88 -66 -175 -99.5 t-186 -33.5q-90 0 -161.5 36.5t-111.5 101t-40 142.5zM399 301q1 -94 105 -94q53 0 108.5 23.5t124.5 68.5v236l-53 -19q-162 -55 -223.5 -101t-61.5 -114z" />
<glyph unicode="b" horiz-adv-x="1376" d="M172 0v1638h313v-542q129 78 281 78q154 0 272.5 -68t185 -201t66.5 -323q0 -207 -75.5 -343.5t-200.5 -201t-279 -64.5q-166 0 -305 101l-33 -74h-225zM485 260q100 -59 213 -59q142 0 208.5 95t66.5 286q0 197 -67.5 280.5t-174.5 83.5q-72 0 -130 -17.5t-116 -54.5 v-614z" />
<glyph unicode="c" horiz-adv-x="1116" d="M86 571q0 166 65.5 302.5t205 218.5t350.5 82q86 0 178 -23t147 -59l-67 -218q-123 72 -258 72q-145 0 -224.5 -97t-79.5 -276q0 -178 72 -276t201 -98q86 0 156.5 29.5t152.5 84.5l90 -198q-74 -61 -177 -101.5t-222 -40.5q-197 0 -329 79t-196.5 213t-64.5 306z" />
<glyph unicode="d" horiz-adv-x="1376" d="M86 567q0 315 175 461t466 146q98 0 166 -19v483h313v-1638h-233l-31 88q-145 -115 -330 -115q-156 0 -274.5 68t-185 202t-66.5 324zM403 567q0 -198 68 -282t174 -84q74 0 132.5 17.5t115.5 55.5v654q-66 18 -148 18q-342 0 -342 -379z" />
<glyph unicode="e" horiz-adv-x="1230" d="M86 571q0 176 65.5 312.5t197.5 213.5t327 77q223 0 345 -123t124 -346q0 -82 -25 -166h-725q6 -168 74 -254t207 -86q98 0 180 36.5t176 108.5l90 -199q-102 -88 -207.5 -130t-238.5 -42q-197 0 -329 79t-196.5 213t-64.5 306zM412 743h428q2 10 2 29q-2 92 -52.5 141.5 t-132.5 49.5q-194 -1 -245 -220z" />
<glyph unicode="f" horiz-adv-x="886" d="M53 922v133l174 65v82q0 217 109.5 333t335.5 116q80 0 200 -17l-22 -221q-76 10 -127 10q-182 0 -182 -225v-51h327v-225h-327v-922h-314v922h-174z" />
<glyph unicode="g" horiz-adv-x="1253" d="M57 -199q0 76 44 138.5t128 126.5q-57 31 -84.5 76.5t-27.5 97.5q0 61 43 121.5t137 125.5q-80 53 -122 132t-42 169q0 104 52.5 191.5t158 141t256.5 53.5q100 0 191 -27h452v-225l-209 26q35 -76 35 -155q0 -102 -52 -190.5t-158.5 -141.5t-258.5 -53q-45 0 -115 8 q-61 -55 -61 -103q0 -37 23.5 -53t82.5 -16h318q178 0 278.5 -76t100.5 -207q0 -129 -88 -235.5t-243 -169t-343 -62.5q-260 0 -378 90t-118 217zM356 -174q0 -104 197 -105q104 0 190 29t135.5 74t49.5 90q0 100 -152 100h-295h-26q-98 -98 -99 -188zM432 791 q0 -82 46 -127.5t122 -45.5t122 45.5t46 127.5t-45 127t-123 45t-123 -45.5t-45 -126.5z" />
<glyph unicode="h" horiz-adv-x="1366" d="M172 0v1638h313v-565q174 100 340 101q217 0 299 -114t82 -331v-729h-313v692q0 139 -36 194.5t-132 55.5q-117 0 -240 -86v-856h-313z" />
<glyph unicode="i" horiz-adv-x="661" d="M147 1530q0 76 53.5 129t129.5 53t130 -53t54 -129t-54 -129t-130 -53t-129.5 53t-53.5 129zM174 0v1147h313v-1147h-313z" />
<glyph unicode="j" horiz-adv-x="655" d="M-162 -475l23 221q76 -10 127 -10q182 0 182 225v1186h313v-1190q0 -217 -110.5 -333t-335.5 -116q-80 1 -199 17zM145 1530q0 76 53.5 129t129.5 53t130 -53t54 -129t-54.5 -129t-129.5 -53q-76 0 -129.5 53t-53.5 129z" />
<glyph unicode="k" horiz-adv-x="1271" d="M172 0v1638h313v-985l369 494h322l-402 -522l477 -625h-344l-422 596v-596h-313z" />
<glyph unicode="l" horiz-adv-x="655" d="M172 0v1638h313v-1638h-313z" />
<glyph unicode="m" horiz-adv-x="2074" d="M172 0v1147h234l34 -100q199 127 381 127q225 0 314 -140q207 139 401 140q213 0 295 -115t82 -330v-729h-314v692q0 139 -34.5 194.5t-128.5 55.5q-113 0 -242 -90l-4 8q8 -55 8 -131v-729h-313v692q0 139 -35 194.5t-129 55.5q-113 0 -236 -86v-856h-313z" />
<glyph unicode="n" horiz-adv-x="1366" d="M172 0v1147h234l34 -100q199 127 383 127q217 0 299 -114t82 -331v-729h-313v692q0 139 -36 194.5t-132 55.5q-115 0 -238 -86v-856h-313z" />
<glyph unicode="o" horiz-adv-x="1351" d="M86 571q0 176 65.5 312.5t198.5 213.5t326 77t326 -82t199.5 -218.5t66.5 -298.5t-66.5 -299t-200 -220t-325.5 -83q-193 0 -326 78t-198.5 213t-65.5 307zM403 573q0 -374 274 -374h1h1q271 0 271 374q0 373 -272 373q-274 0 -275 -373z" />
<glyph unicode="p" horiz-adv-x="1376" d="M172 -477v1624h234l30 -86q147 113 330 113q154 0 272.5 -71t185 -207t66.5 -325q0 -307 -175 -452.5t-464 -145.5q-98 0 -166 19v-469h-313zM485 217q78 -18 146 -18q344 0 344 381q0 199 -68.5 282.5t-175.5 83.5q-74 0 -131 -17.5t-115 -56.5v-655z" />
<glyph unicode="q" horiz-adv-x="1376" d="M86 565q0 207 76 343t201.5 201t279.5 65q164 0 305 -103l31 76h227v-1632h-313v536q-129 -78 -281 -78q-156 0 -274.5 68t-185 201t-66.5 323zM403 565q0 -199 68 -281.5t174 -82.5q74 0 132.5 17.5t115.5 55.5v611q-109 61 -215 61q-141 0 -208 -95t-67 -286z" />
<glyph unicode="r" horiz-adv-x="929" d="M172 0v1147h234l49 -139q106 90 205.5 126.5t209.5 36.5v-299q-104 0 -191 -16t-194 -65v-791h-313z" />
<glyph unicode="s" horiz-adv-x="1093" d="M86 55l64 217q180 -73 335 -73h4q94 0 152.5 29.5t58.5 90.5q0 51 -54 84t-171 74q-115 41 -186.5 77t-123.5 98.5t-52 154.5q0 180 131 273.5t356 93.5q94 0 190.5 -19.5t170.5 -54.5l-66 -219q-145 65 -283 65h-4q-88 0 -137 -25.5t-49 -76.5t51 -81t162 -67 q115 -37 190.5 -73.5t130 -106.5t54.5 -176q0 -172 -133.5 -269.5t-382.5 -97.5q-115 0 -221.5 22.5t-186.5 59.5z" />
<glyph unicode="t" horiz-adv-x="962" d="M39 922v133l211 80l88 301h188v-289h328v-225h-328v-498q0 -115 36 -164t112 -49q92 0 188 53l51 -196q-61 -43 -139 -63.5t-153 -20.5q-207 0 -307.5 95t-100.5 273v570h-174z" />
<glyph unicode="u" horiz-adv-x="1366" d="M162 416v731h313v-692q0 -141 36 -196.5t132 -55.5q115 0 240 88v856h313v-1147h-233l-35 98q-195 -125 -385 -125q-217 0 -299 114t-82 329z" />
<glyph unicode="v" horiz-adv-x="1226" d="M18 1147h320l278 -842l277 842h315l-442 -1159h-305z" />
<glyph unicode="w" horiz-adv-x="1785" d="M25 1147h319l191 -832l210 832h302l206 -832l195 832h315l-362 -1159h-301l-205 829l-207 -829h-301z" />
<glyph unicode="x" horiz-adv-x="1257" d="M18 0l433 594l-400 553h342l234 -377l233 377h338l-401 -547l440 -600h-342l-268 408l-269 -408h-340z" />
<glyph unicode="y" horiz-adv-x="1251" d="M25 -481l22 231q102 -31 176 -31q98 0 168 47.5t123 155.5l-473 1225h319l285 -844l275 844h315l-490 -1299q-70 -195 -191.5 -280.5t-295.5 -85.5q-57 0 -121.5 9t-111.5 28z" />
<glyph unicode="z" horiz-adv-x="1118" d="M59 0v170l611 752h-582v225h940v-174l-608 -750h629v-223h-990z" />
<glyph unicode="{" horiz-adv-x="792" d="M27 489v201q109 10 161 48t52 112q0 51 -21 145q-18 78 -18 129q0 168 146.5 245t367.5 75v-203q-205 2 -205 -127q0 -72 20 -166q18 -74 19 -129q0 -84 -41 -143.5t-117 -83.5v-4q78 -25 118 -83.5t40 -146.5q0 -55 -19 -129q-20 -90 -20 -163q0 -63 52 -95t153 -32 v-205q-221 0 -366.5 76.5t-145.5 244.5q0 47 18 129q20 90 21 144q0 74 -52.5 111.5t-162.5 49.5z" />
<glyph unicode="|" horiz-adv-x="796" d="M236 -483v2136h323v-2136h-323z" />
<glyph unicode="}" horiz-adv-x="792" d="M78 -61q205 0 205 127q0 72 -21 165q-18 74 -18 127q0 88 40 146.5t117 83.5v4q-76 25 -116.5 84t-40.5 143q0 55 18 129q20 94 21 166q0 129 -205 127v203q219 2 366.5 -75t147.5 -245q0 -47 -19 -129q-20 -90 -20 -145q0 -74 52 -111t161 -49v-201q-111 -12 -163 -50 t-52 -111q0 -53 20 -144q18 -82 19 -129q0 -168 -146.5 -244.5t-365.5 -76.5v205z" />
<glyph unicode="~" d="M72 512q80 109 171 177.5t216 68.5q61 0 110 -20.5t109 -57.5q55 -33 91 -48.5t79 -15.5q133 0 237 148l146 -141q-84 -109 -171 -174.5t-212 -65.5q-55 0 -98 18.5t-111 55.5q-55 35 -95 51t-85 16q-74 0 -132.5 -42t-109.5 -111z" />
<glyph horiz-adv-x="1011" />
<glyph unicode="&#xa1;" horiz-adv-x="679" d="M147 0zM148 981q0 80 56 136t136 56t136.5 -56t56.5 -136t-56.5 -136.5t-136.5 -56.5t-136 56.5t-56 136.5zM182 -234l21 936h272l41 -936h-334z" />
<glyph unicode="&#xa2;" d="M88 692q0 219 129 376t393 196v374h277v-374q90 -16 175 -57.5t142 -96.5l-67 -215q-188 154 -363 154q-176 0 -272 -93.5t-96 -261.5q0 -178 90 -275t249 -97q115 0 209.5 49t202.5 143l88 -197q-67 -73 -159.5 -128.5t-198.5 -77.5v-363h-277v354q-258 35 -390 196 t-132 394z" />
<glyph unicode="&#xa3;" d="M141 588v225h115q-31 92 -31 197q0 193 138.5 300t375.5 107q233 -2 430 -106l-71 -215q-82 41 -157 63.5t-155 22.5q-119 0 -182 -53.5t-63 -131.5q0 -88 41 -184h428v-225h-326q16 -61 16 -133q0 -59 -24.5 -112.5t-73.5 -113.5h578v-229h-1020v172q227 135 227 283 q0 68 -27 133h-219z" />
<glyph unicode="&#xa4;" d="M133 252l141 141q-39 84 -38 185q0 98 36 180l-139 141l193 193l135 -134q82 41 188 41q104 0 191 -41l133 134l192 -193l-137 -137q39 -80 39 -180q0 -102 -41 -191l141 -139l-194 -193l-139 140q-88 -37 -185 -37q-94 0 -182 37l-141 -140zM477 580q0 -86 48 -141.5 t124 -55.5q78 0 127 55.5t49 141.5q0 84 -49 141t-127 57q-76 0 -124 -57t-48 -141z" />
<glyph unicode="&#xa5;" d="M84 1393h334l235 -392l240 392h330l-346 -508h268v-226h-336v-86h336v-225h-336v-348h-315v348h-340v225h340v86h-340v226h272z" />
<glyph unicode="&#xa6;" horiz-adv-x="796" d="M236 352h323v-835h-323v835zM236 817v836h323v-836h-323z" />
<glyph unicode="&#xa7;" horiz-adv-x="1230" d="M156 -223l63 219q178 -74 334 -74q96 0 153.5 29t57.5 92q0 51 -53.5 82t-169.5 74q-115 41 -187.5 76.5t-125 98t-52.5 156.5q0 188 158 291q-125 90 -125 226q0 178 131 271t356 93q94 0 190.5 -19.5t168.5 -54.5l-64 -217q-150 63 -286 64q-88 0 -137.5 -25.5 t-49.5 -77.5q0 -51 51.5 -80.5t161.5 -66.5q115 -37 190.5 -74t130 -106.5t54.5 -175.5q0 -180 -145 -281q112 -89 112 -234q0 -176 -133 -272t-383 -96q-111 0 -217.5 22.5t-183.5 59.5zM485 565q0 -49 49.5 -78.5t151.5 -64.5q53 29 82 60.5t29 74.5q0 49 -50.5 80 t-152.5 70q-55 -29 -82 -63t-27 -79z" />
<glyph unicode="&#xa8;" horiz-adv-x="1024" d="M94 1513q0 68 50.5 118t117.5 50q68 0 118 -50t50 -118t-50 -117.5t-118 -49.5q-67 0 -117.5 50t-50.5 117zM594 1513q0 68 50 118t118 50t118 -50t50 -118t-50.5 -117.5t-117.5 -49.5q-68 0 -118 50t-50 117z" />
<glyph unicode="&#xa9;" horiz-adv-x="1675" d="M98 698q0 199 93.5 363t262.5 260t384 96t385 -96t263 -260t93 -363t-94 -364.5t-263 -263t-384 -97.5t-384 97.5t-262.5 263.5t-93.5 364zM326 698q0 -150 62.5 -272.5t179 -194t270.5 -71.5q155 0 272 71.5t179.5 194.5t62.5 272q0 150 -62.5 272t-179.5 192.5 t-272 70.5q-154 0 -270.5 -70.5t-179 -192.5t-62.5 -272zM479 698q0 102 45 188.5t134.5 138.5t211.5 52q68 0 127.5 -16.5t102.5 -42.5l-53 -160q-70 39 -148 39q-90 0 -143.5 -56.5t-53.5 -142.5q0 -90 49.5 -146t139.5 -56q82 0 147 45l64 -160q-43 -29 -107.5 -47.5 t-132.5 -18.5q-123 0 -210 52.5t-130 139.5t-43 191z" />
<glyph unicode="&#xaa;" horiz-adv-x="878" d="M47 1362q209 123 428 123q160 0 230.5 -77t70.5 -249v-225q0 -20 6 -30.5t25 -10.5q20 0 41 10l12 -207q-76 -18 -155 -18q-147 0 -191 84q-61 -43 -118.5 -64.5t-133.5 -21.5q-94 0 -153.5 54t-59.5 134q0 90 50.5 148.5t142.5 95.5t254 80v6q0 45 -21.5 74.5 t-83.5 29.5q-129 0 -282 -96zM51 317v213h787v-213h-787zM334 905q0 -22 15.5 -34.5t39.5 -12.5q39 0 107 47v137q-88 -33 -125 -63.5t-37 -73.5z" />
<glyph unicode="&#xab;" horiz-adv-x="1277" d="M98 98zM98 530l324 433l221 -158l-209 -275l209 -274l-221 -158zM639 530l324 433l221 -158l-209 -275l209 -274l-221 -158z" />
<glyph unicode="&#xac;" d="M66 500v223h1169v-705h-240v482h-929z" />
<glyph unicode="&#xad;" horiz-adv-x="1228" d="M41 477v223h514v-223h-514zM41 477z" />
<glyph unicode="&#xae;" horiz-adv-x="987" d="M68 1067q0 121 57 218t155.5 152.5t215.5 55.5q116 0 212.5 -55.5t153 -152.5t56.5 -218q0 -119 -56.5 -216t-153 -153.5t-212.5 -56.5q-117 0 -215.5 56.5t-155.5 153.5t-57 216zM188 1067q0 -88 41 -158.5t111 -110.5t152 -40q83 0 154 40t112 110.5t41 158.5 t-41 159.5t-112 112.5t-154 41q-82 0 -152 -41t-111 -112.5t-41 -159.5zM348 899v340h164q66 0 102.5 -32.5t36.5 -86.5q0 -67 -49 -94l86 -127h-123l-63 102h-47v-102h-107zM455 1083h49q23 0 32 9.5t9 29.5q0 35 -41 35h-49v-74z" />
<glyph unicode="&#xaf;" horiz-adv-x="1024" d="M125 1380v222h776v-222h-776z" />
<glyph unicode="&#xb0;" horiz-adv-x="1040" d="M121 1096q0 104 48 194t138 144.5t211 54.5q123 0 214 -54.5t138.5 -143.5t47.5 -191q0 -106 -47.5 -196.5t-138.5 -143.5t-214 -53q-121 0 -211 53t-138 142t-48 194zM346 1098q0 -84 48 -140.5t124 -56.5t126 56.5t50 140.5t-50 140t-126 56q-74 0 -123 -56t-49 -140z " />
<glyph unicode="&#xb1;" d="M66 0v213h1169v-213h-1169zM66 641v215h464v330h240v-330h465v-215h-465v-328h-240v328h-464z" />
<glyph unicode="&#xb2;" horiz-adv-x="913" d="M111 1618q67 57 151 94t174 37q119 0 198 -38t115.5 -98.5t36.5 -129.5q0 -92 -52 -161t-171 -159l-78 -57v-2h324v-205h-659v191l200 147q90 68 126 120t36 101q0 41 -23.5 64.5t-60.5 23.5q-57 0 -118.5 -31.5t-133.5 -87.5z" />
<glyph unicode="&#xb3;" horiz-adv-x="913" d="M100 950l60 176q125 -63 250 -63q63 0 98 24.5t35 65.5q0 39 -28 61.5t-77 22.5q-59 0 -137 -23l-18 179q117 23 166 44t49 68q0 27 -22.5 43.5t-63.5 16.5q-49 0 -112.5 -21.5t-115.5 -60.5l-59 162q66 49 151.5 76.5t172.5 27.5q141 0 227 -59.5t86 -157.5 q0 -106 -127 -180q76 -29 124 -83.5t48 -131.5q0 -72 -46 -131.5t-137.5 -94t-217.5 -34.5q-164 0 -306 73z" />
<glyph unicode="&#xb4;" horiz-adv-x="1024" d="M254 1208l199 434h335l-292 -434h-242z" />
<glyph unicode="&#xb6;" horiz-adv-x="1236" d="M61 903q0 139 62.5 251t186.5 175.5t300 63.5h449v-1436q0 -217 -110.5 -333t-336.5 -116q-80 0 -198 17l22 223q76 -10 127 -10q182 0 182 223v449h-135q-264 0 -406.5 134t-142.5 359z" />
<glyph unicode="&#xb7;" horiz-adv-x="679" d="M147 592q0 80 56.5 136t136.5 56t136 -56t56 -136t-56 -136.5t-136 -56.5t-136.5 56.5t-56.5 136.5z" />
<glyph unicode="&#xb8;" horiz-adv-x="1024" d="M309 -158l131 242h205l-98 -180q80 -6 132 -52.5t52 -113.5q0 -88 -87 -159t-277 -77l-43 140q102 8 139 28.5t37 53.5q0 23 -18.5 36t-49.5 13t-59 -13z" />
<glyph unicode="&#xb9;" horiz-adv-x="913" d="M190 1700l238 35h229v-631h172v-205h-618v205h172v430l-147 -16z" />
<glyph unicode="&#xba;" horiz-adv-x="925" d="M45 1075q0 109 47 203t141.5 151.5t229.5 57.5t230 -57.5t142.5 -150.5t47.5 -200q0 -111 -47.5 -205t-142.5 -151t-230 -57t-229.5 57t-141.5 150.5t-47 201.5zM74 317v213h780v-213h-780zM328 1077q0 -109 30.5 -162t102.5 -53q74 0 104.5 53.5t30.5 161.5 q0 107 -32 161t-103 54q-72 0 -102.5 -54t-30.5 -161z" />
<glyph unicode="&#xbb;" horiz-adv-x="1277" d="M94 98zM94 256l209 274l-209 275l221 158l324 -433l-324 -432zM635 256l209 274l-209 275l221 158l324 -433l-324 -432z" />
<glyph unicode="&#xbc;" horiz-adv-x="2263" d="M190 0zM190 1358l238 35h229v-631h172v-205h-618v205h172v430l-147 -16zM688 49l819 1417l227 -137l-819 -1417zM1405 145v160l399 531h291v-486h129v-205h-129v-163h-268v163h-422zM1659 350h168v113l4 133l-88 -123z" />
<glyph unicode="&#xbd;" horiz-adv-x="2316" d="M190 0zM190 1358l238 35h229v-631h172v-205h-618v205h172v430l-147 -16zM688 49l819 1417l227 -137l-819 -1417zM1514 719q67 57 151 94t174 37q119 0 198 -38t115.5 -98.5t36.5 -129.5q0 -92 -52 -161t-171 -159l-78 -57v-2h324v-205h-659v191l200 147q90 68 126 120 t36 101q0 41 -23.5 64.5t-60.5 23.5q-57 0 -118.5 -31.5t-133.5 -87.5z" />
<glyph unicode="&#xbe;" horiz-adv-x="2158" d="M100 0zM100 608l60 176q125 -63 250 -63q63 0 98 24.5t35 65.5q0 39 -28 61.5t-77 22.5q-59 0 -137 -23l-18 179q117 23 166 44t49 68q0 27 -22.5 43.5t-63.5 16.5q-49 0 -112.5 -21.5t-115.5 -60.5l-59 162q66 49 151.5 76.5t172.5 27.5q141 0 227 -59.5t86 -157.5 q0 -106 -127 -180q76 -29 124 -83.5t48 -131.5q0 -72 -46 -131.5t-137.5 -94t-217.5 -34.5q-164 0 -306 73zM582 49l819 1417l227 -137l-819 -1417zM1300 145v160l400 531h291v-486h129v-205h-129v-163h-269v163h-422zM1554 350h168v113l4 133l-88 -123z" />
<glyph unicode="&#xbf;" horiz-adv-x="1064" d="M135 0zM135 145q0 139 108.5 234.5t309.5 158.5l12 164h226l18 -377q-193 -33 -271.5 -69.5t-78.5 -112.5q0 -145 465 -145v-234q-418 0 -603.5 106.5t-185.5 274.5zM483 981q0 80 56.5 136t136.5 56t136 -56t56 -136t-56 -136.5t-136 -56.5t-136.5 56.5t-56.5 136.5z " />
<glyph unicode="&#xc0;" horiz-adv-x="1419" d="M18 0l537 1411h309l539 -1411h-330l-119 350h-491l-119 -350h-326zM18 0zM247 1858h332l281 -342h-267zM539 573h340l-170 504z" />
<glyph unicode="&#xc1;" horiz-adv-x="1419" d="M18 0l537 1411h309l539 -1411h-330l-119 350h-491l-119 -350h-326zM18 0zM539 573h340l-170 504zM559 1516l281 342h332l-348 -342h-265z" />
<glyph unicode="&#xc2;" horiz-adv-x="1419" d="M18 0l537 1411h309l539 -1411h-330l-119 350h-491l-119 -350h-326zM18 0zM263 1516l292 342h304l292 -342h-294l-150 192l-150 -192h-294zM539 573h340l-170 504z" />
<glyph unicode="&#xc3;" horiz-adv-x="1419" d="M18 0l537 1411h309l539 -1411h-330l-119 350h-491l-119 -350h-326zM18 0zM314 1511q10 160 75.5 252t167.5 92q43 0 80 -16t82 -45q43 -25 68.5 -37t52.5 -12q31 0 52.5 29.5t35.5 97.5l172 -8q-10 -150 -77.5 -247t-165.5 -97q-45 0 -82 15t-93 48q-39 25 -62.5 36 t-45.5 11q-31 0 -52.5 -29.5t-35.5 -97.5zM539 573h340l-170 504z" />
<glyph unicode="&#xc4;" horiz-adv-x="1419" d="M18 0l537 1411h309l539 -1411h-330l-119 350h-491l-119 -350h-326zM18 0zM304 1683q0 63 45 109.5t108 46.5t109.5 -46t46.5 -110q0 -61 -46 -107t-110 -46q-63 0 -108 46t-45 107zM539 573h340l-170 504zM803 1683q0 63 45 109.5t109 46.5q63 0 109.5 -46t46.5 -110 q0 -61 -46.5 -107t-109.5 -46q-64 0 -109 46t-45 107z" />
<glyph unicode="&#xc5;" horiz-adv-x="1419" d="M18 0l537 1411h309l539 -1411h-330l-119 350h-491l-119 -350h-326zM18 0zM416 1714q0 94 77 153.5t214 59.5t214 -59.5t77 -153.5t-77 -154.5t-214 -60.5t-214 60.5t-77 154.5zM539 573h340l-170 504zM619 1714q0 -35 23.5 -53.5t64.5 -18.5q86 0 86 72q0 33 -22.5 51.5 t-63.5 18.5t-64.5 -18.5t-23.5 -51.5z" />
<glyph unicode="&#xc6;" horiz-adv-x="2062" d="M-16 0l878 1393h1053v-228h-557v-352h475v-227h-475v-359h598v-227h-922v477h-436l-285 -477h-329zM735 705h299v499z" />
<glyph unicode="&#xc7;" horiz-adv-x="1402" d="M98 698q0 195 89 359t265.5 262t426.5 98q125 0 235.5 -29.5t192.5 -82.5l-76 -226q-154 102 -352 103q-143 0 -247 -64.5t-157 -174t-53 -247.5q0 -215 113.5 -351t322.5 -136q111 0 210 31.5t175 78.5l70 -219q-72 -45 -167 -78.5t-200 -44.5l-41 -73 q80 -6 132.5 -52.5t52.5 -113.5q0 -88 -87.5 -159t-277.5 -77l-43 140q102 8 139 28.5t37 53.5q0 23 -18.5 36t-48.5 13q-31 0 -60 -13l-63 82l73 138q-211 25 -355 127t-216 256.5t-72 334.5z" />
<glyph unicode="&#xc8;" horiz-adv-x="1222" d="M184 0zM184 1858h332l281 -342h-267zM195 0v1393h880v-228h-557v-315h475v-227h-475v-396h598v-227h-921z" />
<glyph unicode="&#xc9;" horiz-adv-x="1222" d="M195 0v1393h880v-228h-557v-315h475v-227h-475v-396h598v-227h-921zM195 0zM495 1516l281 342h332l-348 -342h-265z" />
<glyph unicode="&#xca;" horiz-adv-x="1222" d="M195 0v1393h880v-228h-557v-315h475v-227h-475v-396h598v-227h-921zM195 0zM199 1516l292 342h304l292 -342h-294l-150 192l-150 -192h-294z" />
<glyph unicode="&#xcb;" horiz-adv-x="1222" d="M195 0v1393h880v-228h-557v-315h475v-227h-475v-396h598v-227h-921zM195 0zM240 1683q0 63 45 109.5t108 46.5t109.5 -46t46.5 -110q0 -61 -46 -107t-110 -46q-63 0 -108 46t-45 107zM739 1683q0 63 45 109.5t109 46.5q63 0 109.5 -46t46.5 -110q0 -61 -46.5 -107 t-109.5 -46q-64 0 -109 46t-45 107z" />
<glyph unicode="&#xcc;" horiz-adv-x="714" d="M-103 1858h332l281 -342h-267zM0 0zM195 0v1393h323v-1393h-323z" />
<glyph unicode="&#xcd;" horiz-adv-x="714" d="M195 0v1393h323v-1393h-323zM195 0zM208 1516l281 342h332l-348 -342h-265z" />
<glyph unicode="&#xce;" horiz-adv-x="714" d="M-88 1516l292 342h304l292 -342h-294l-150 192l-150 -192h-294zM0 0zM195 0v1393h323v-1393h-323z" />
<glyph unicode="&#xcf;" horiz-adv-x="714" d="M-47 1683q0 63 45 109.5t108 46.5t109.5 -46t46.5 -110q0 -61 -46 -107t-110 -46q-63 0 -108 46t-45 107zM0 0zM195 0v1393h323v-1393h-323zM452 1683q0 63 45 109.5t109 46.5q63 0 109.5 -46t46.5 -110q0 -61 -46.5 -107t-109.5 -46q-64 0 -109 46t-45 107z" />
<glyph unicode="&#xd0;" horiz-adv-x="1570" d="M6 621v219h189v553h555q229 0 393 -90.5t247 -248t83 -356.5q0 -203 -83 -361.5t-246 -247.5t-394 -89h-555v621h-189zM518 231h232q188 0 292.5 126t104.5 339q0 211 -104.5 338t-292.5 127h-232v-321h287v-219h-287v-390z" />
<glyph unicode="&#xd1;" horiz-adv-x="1654" d="M195 0v1393h290l674 -924l-24 471v453h323v-1393l-289 -2l-675 930l24 -463v-465h-323zM195 0zM432 1511q10 160 75.5 252t167.5 92q43 0 80 -16t82 -45q43 -25 68.5 -37t52.5 -12q31 0 52.5 29.5t35.5 97.5l172 -8q-10 -150 -77.5 -247t-165.5 -97q-45 0 -82 15t-93 48 q-39 25 -62.5 36t-45.5 11q-31 0 -52.5 -29.5t-35.5 -97.5z" />
<glyph unicode="&#xd2;" horiz-adv-x="1669" d="M98 0zM98 696q0 199 85 363t252 261t401 97q233 0 400 -97t252 -261t85 -363q0 -201 -85 -365.5t-251 -261t-401 -96.5q-234 0 -401 97.5t-252 261.5t-85 364zM377 1858h332l281 -342h-267zM422 696q0 -139 48 -249.5t142.5 -174t223.5 -63.5t223 63.5t142 174t48 249.5 t-48 249t-142 173.5t-223 63.5t-223.5 -63.5t-142.5 -173t-48 -249.5z" />
<glyph unicode="&#xd3;" horiz-adv-x="1669" d="M98 0zM98 696q0 199 85 363t252 261t401 97q233 0 400 -97t252 -261t85 -363q0 -201 -85 -365.5t-251 -261t-401 -96.5q-234 0 -401 97.5t-252 261.5t-85 364zM422 696q0 -139 48 -249.5t142.5 -174t223.5 -63.5t223 63.5t142 174t48 249.5t-48 249t-142 173.5t-223 63.5 t-223.5 -63.5t-142.5 -173t-48 -249.5zM688 1516l281 342h332l-348 -342h-265z" />
<glyph unicode="&#xd4;" horiz-adv-x="1669" d="M98 0zM98 696q0 199 85 363t252 261t401 97q233 0 400 -97t252 -261t85 -363q0 -201 -85 -365.5t-251 -261t-401 -96.5q-234 0 -401 97.5t-252 261.5t-85 364zM392 1516l292 342h304l292 -342h-294l-150 192l-150 -192h-294zM422 696q0 -139 48 -249.5t142.5 -174 t223.5 -63.5t223 63.5t142 174t48 249.5t-48 249t-142 173.5t-223 63.5t-223.5 -63.5t-142.5 -173t-48 -249.5z" />
<glyph unicode="&#xd5;" horiz-adv-x="1669" d="M98 0zM98 696q0 199 85 363t252 261t401 97q233 0 400 -97t252 -261t85 -363q0 -201 -85 -365.5t-251 -261t-401 -96.5q-234 0 -401 97.5t-252 261.5t-85 364zM422 696q0 -139 48 -249.5t142.5 -174t223.5 -63.5t223 63.5t142 174t48 249.5t-48 249t-142 173.5t-223 63.5 t-223.5 -63.5t-142.5 -173t-48 -249.5zM443 1511q10 160 75.5 252t167.5 92q43 0 80 -16t82 -45q43 -25 68.5 -37t52.5 -12q31 0 52.5 29.5t35.5 97.5l172 -8q-10 -150 -77.5 -247t-165.5 -97q-45 0 -82 15t-93 48q-39 25 -62.5 36t-45.5 11q-31 0 -52.5 -29.5t-35.5 -97.5z " />
<glyph unicode="&#xd6;" horiz-adv-x="1669" d="M98 0zM98 696q0 199 85 363t252 261t401 97q233 0 400 -97t252 -261t85 -363q0 -201 -85 -365.5t-251 -261t-401 -96.5q-234 0 -401 97.5t-252 261.5t-85 364zM422 696q0 -139 48 -249.5t142.5 -174t223.5 -63.5t223 63.5t142 174t48 249.5t-48 249t-142 173.5t-223 63.5 t-223.5 -63.5t-142.5 -173t-48 -249.5zM433 1683q0 63 45 109.5t108 46.5t109.5 -46t46.5 -110q0 -61 -46 -107t-110 -46q-63 0 -108 46t-45 107zM932 1683q0 63 45 109.5t109 46.5q63 0 109.5 -46t46.5 -110q0 -61 -46.5 -107t-109.5 -46q-64 0 -109 46t-45 107z" />
<glyph unicode="&#xd7;" d="M154 274l335 336l-327 328l157 158l328 -328l334 334l158 -158l-334 -334l340 -342l-158 -157l-340 342l-336 -336z" />
<glyph unicode="&#xd8;" horiz-adv-x="1687" d="M98 696q0 199 85 363t252 261t401 97q219 0 393 -92l153 180l174 -149l-149 -176q82 -97 124 -220.5t42 -263.5q0 -201 -85 -365.5t-251 -261t-401 -96.5q-219 0 -385 88l-162 -188l-174 150l155 182q-84 96 -128 222t-44 269zM422 696q0 -147 51 -256l582 682 q-98 59 -219 60q-129 0 -223.5 -63.5t-142.5 -173t-48 -249.5zM625 264q90 -55 211 -55q129 0 223 63.5t142 174t48 249.5q0 135 -47 246z" />
<glyph unicode="&#xd9;" horiz-adv-x="1613" d="M174 0zM174 549v844h324v-842q0 -342 309 -342q307 0 307 342v842h324v-840q0 -270 -162 -425t-469 -155t-470 154t-163 422zM348 1858h332l281 -342h-267z" />
<glyph unicode="&#xda;" horiz-adv-x="1613" d="M174 0zM174 549v844h324v-842q0 -342 309 -342q307 0 307 342v842h324v-840q0 -270 -162 -425t-469 -155t-470 154t-163 422zM659 1516l281 342h332l-348 -342h-265z" />
<glyph unicode="&#xdb;" horiz-adv-x="1613" d="M174 0zM174 549v844h324v-842q0 -342 309 -342q307 0 307 342v842h324v-840q0 -270 -162 -425t-469 -155t-470 154t-163 422zM363 1516l292 342h304l292 -342h-294l-150 192l-150 -192h-294z" />
<glyph unicode="&#xdc;" horiz-adv-x="1613" d="M174 0zM174 549v844h324v-842q0 -342 309 -342q307 0 307 342v842h324v-840q0 -270 -162 -425t-469 -155t-470 154t-163 422zM404 1683q0 63 45 109.5t108 46.5t109.5 -46t46.5 -110q0 -61 -46 -107t-110 -46q-63 0 -108 46t-45 107zM903 1683q0 63 45 109.5t109 46.5 q63 0 109.5 -46t46.5 -110q0 -61 -46.5 -107t-109.5 -46q-64 0 -109 46t-45 107z" />
<glyph unicode="&#xdd;" horiz-adv-x="1394" d="M20 0zM20 1393h342l334 -600l338 600h338l-514 -830v-563h-323v557zM548 1516l281 342h332l-348 -342h-265z" />
<glyph unicode="&#xde;" horiz-adv-x="1421" d="M195 0v1393h323v-228h227q287 0 421 -110.5t134 -337.5t-134 -338t-421 -111h-227v-268h-323zM518 496h227q121 2 176.5 54t55.5 167q0 113 -55.5 167t-176.5 54h-227v-442z" />
<glyph unicode="&#xdf;" horiz-adv-x="1437" d="M172 0v1190q0 219 143.5 340t413.5 121q221 0 345 -87t124 -239q0 -86 -42 -152.5t-118 -144.5q-57 -66 -82.5 -101.5t-25.5 -76.5q0 -45 38 -78t117 -80q84 -49 137.5 -90t92.5 -107.5t39 -156.5q0 -109 -60.5 -192t-163 -128t-223.5 -45q-188 1 -354 64l61 219 q66 -27 138.5 -42t134.5 -15q158 0 157 120q0 47 -38.5 82t-122.5 82q-82 45 -134.5 84t-90 100.5t-37.5 147.5q0 104 44 177t123 157q53 57 77 91t24 71q0 55 -46 83.5t-130 28.5q-227 0 -228 -237v-1186h-313z" />
<glyph unicode="&#xe0;" horiz-adv-x="1230" d="M86 0zM86 262q0 123 63.5 198t174 121t327.5 107l86 25v26q0 203 -176 203q-88 0 -182 -38t-215 -128l-70 213q283 184 565 185q190 0 290 -103.5t100 -349.5v-426q0 -45 17 -64.5t58 -19.5q35 0 80 12l13 -213q-117 -27 -213 -26q-190 0 -244 131q-88 -66 -175 -99.5 t-186 -33.5q-90 0 -161.5 36.5t-111.5 101t-40 142.5zM232 1710h335l199 -434h-242zM399 301q1 -94 105 -94q53 0 108.5 23.5t124.5 68.5v236l-53 -19q-162 -55 -223.5 -101t-61.5 -114z" />
<glyph unicode="&#xe1;" horiz-adv-x="1230" d="M86 0zM86 262q0 123 63.5 198t174 121t327.5 107l86 25v26q0 203 -176 203q-88 0 -182 -38t-215 -128l-70 213q283 184 565 185q190 0 290 -103.5t100 -349.5v-426q0 -45 17 -64.5t58 -19.5q35 0 80 12l13 -213q-117 -27 -213 -26q-190 0 -244 131q-88 -66 -175 -99.5 t-186 -33.5q-90 0 -161.5 36.5t-111.5 101t-40 142.5zM399 301q1 -94 105 -94q53 0 108.5 23.5t124.5 68.5v236l-53 -19q-162 -55 -223.5 -101t-61.5 -114zM471 1276l199 434h335l-292 -434h-242z" />
<glyph unicode="&#xe2;" horiz-adv-x="1230" d="M86 0zM86 262q0 123 63.5 198t174 121t327.5 107l86 25v26q0 203 -176 203q-88 0 -182 -38t-215 -128l-70 213q283 184 565 185q190 0 290 -103.5t100 -349.5v-426q0 -45 17 -64.5t58 -19.5q35 0 80 12l13 -213q-117 -27 -213 -26q-190 0 -244 131q-88 -66 -175 -99.5 t-186 -33.5q-90 0 -161.5 36.5t-111.5 101t-40 142.5zM234 1276l231 430h310l233 -430h-244l-143 240l-145 -240h-242zM399 301q1 -94 105 -94q53 0 108.5 23.5t124.5 68.5v236l-53 -19q-162 -55 -223.5 -101t-61.5 -114z" />
<glyph unicode="&#xe3;" horiz-adv-x="1230" d="M86 0zM86 262q0 123 63.5 198t174 121t327.5 107l86 25v26q0 203 -176 203q-88 0 -182 -38t-215 -128l-70 213q283 184 565 185q190 0 290 -103.5t100 -349.5v-426q0 -45 17 -64.5t58 -19.5q35 0 80 12l13 -213q-117 -27 -213 -26q-190 0 -244 131q-88 -66 -175 -99.5 t-186 -33.5q-90 0 -161.5 36.5t-111.5 101t-40 142.5zM228 1350q10 160 75.5 252t167.5 92q43 0 80 -16.5t82 -44.5q43 -27 68.5 -38t52.5 -11q31 0 52.5 29.5t35.5 96.5l172 -8q-10 -150 -77.5 -247t-165.5 -97q-45 0 -82 15.5t-93 48.5q-39 25 -62.5 36t-45.5 11 q-31 0 -52.5 -30t-35.5 -97zM399 301q1 -94 105 -94q53 0 108.5 23.5t124.5 68.5v236l-53 -19q-162 -55 -223.5 -101t-61.5 -114z" />
<glyph unicode="&#xe4;" horiz-adv-x="1230" d="M86 0zM86 262q0 123 63.5 198t174 121t327.5 107l86 25v26q0 203 -176 203q-88 0 -182 -38t-215 -128l-70 213q283 184 565 185q190 0 290 -103.5t100 -349.5v-426q0 -45 17 -64.5t58 -19.5q35 0 80 12l13 -213q-117 -27 -213 -26q-190 0 -244 131q-88 -66 -175 -99.5 t-186 -33.5q-90 0 -161.5 36.5t-111.5 101t-40 142.5zM203 1513q0 68 50.5 118t117.5 50q68 0 118 -50t50 -118t-50 -117.5t-118 -49.5q-67 0 -117.5 50t-50.5 117zM399 301q1 -94 105 -94q53 0 108.5 23.5t124.5 68.5v236l-53 -19q-162 -55 -223.5 -101t-61.5 -114z M703 1513q0 68 50 118t118 50t118 -50t50 -118t-50.5 -117.5t-117.5 -49.5q-68 0 -118 50t-50 117z" />
<glyph unicode="&#xe5;" horiz-adv-x="1230" d="M86 0zM86 262q0 123 63.5 198t174 121t327.5 107l86 25v26q0 203 -176 203q-88 0 -182 -38t-215 -128l-70 213q283 184 565 185q190 0 290 -103.5t100 -349.5v-426q0 -45 17 -64.5t58 -19.5q35 0 80 12l13 -213q-117 -27 -213 -26q-190 0 -244 131q-88 -66 -175 -99.5 t-186 -33.5q-90 0 -161.5 36.5t-111.5 101t-40 142.5zM326 1510q0 63 34 118.5t101.5 89t159.5 33.5t158.5 -33.5t100.5 -90t34 -117.5q0 -63 -34 -118.5t-100.5 -90.5t-158.5 -35t-159.5 35t-101.5 90t-34 119zM399 301q1 -94 105 -94q53 0 108.5 23.5t124.5 68.5v236 l-53 -19q-162 -55 -223.5 -101t-61.5 -114zM519 1510q0 -47 27.5 -77t74.5 -30t74.5 30t27.5 77q0 45 -27.5 74.5t-74.5 29.5t-74.5 -29.5t-27.5 -74.5z" />
<glyph unicode="&#xe6;" horiz-adv-x="1880" d="M86 262q0 123 63.5 198t174 121t327.5 107l86 25v26q0 203 -176 203q-88 0 -182 -38t-215 -128l-70 213q283 184 565 185q195 0 279 -121q150 121 385 121q223 0 346 -123t125 -346q0 -82 -25 -166h-725q6 -168 74 -254t207 -86q96 0 178 36.5t178 108.5l91 -199 q-104 -88 -210 -130t-239 -42q-162 0 -279.5 56.5t-191.5 158.5q-119 -102 -223.5 -154t-229.5 -52q-90 0 -161.5 36.5t-111.5 101t-40 142.5zM399 301q0 -94 105 -94q61 0 124.5 30.5t151.5 92.5q-31 94 -37 207l-59 -21q-162 -55 -223.5 -101t-61.5 -114zM1061 743h428 q2 10 2 29q-2 92 -52 141.5t-132 49.5q-195 -1 -246 -220z" />
<glyph unicode="&#xe7;" horiz-adv-x="1116" d="M86 571q0 166 65.5 302.5t205 218.5t350.5 82q86 0 178 -23t147 -59l-67 -218q-123 72 -258 72q-145 0 -224.5 -97t-79.5 -276q0 -178 72 -276t201 -98q86 0 156.5 29.5t152.5 84.5l90 -198q-57 -49 -137 -86t-174 -49l-41 -76q80 -6 132 -52.5t52 -113.5q0 -88 -87 -159 t-277 -77l-43 140q102 8 139 28.5t37 53.5q0 23 -18.5 36t-49.5 13t-59 -13l-64 82l76 140q-236 33 -355.5 193.5t-119.5 395.5z" />
<glyph unicode="&#xe8;" horiz-adv-x="1230" d="M86 0zM86 571q0 176 65.5 312.5t197.5 213.5t327 77q223 0 345 -123t124 -346q0 -82 -25 -166h-725q6 -168 74 -254t207 -86q98 0 180 36.5t176 108.5l90 -199q-102 -88 -207.5 -130t-238.5 -42q-197 0 -329 79t-196.5 213t-64.5 306zM263 1710h335l199 -434h-242z M412 743h428q2 10 2 29q-2 92 -52.5 141.5t-132.5 49.5q-194 -1 -245 -220z" />
<glyph unicode="&#xe9;" horiz-adv-x="1230" d="M86 0zM86 571q0 176 65.5 312.5t197.5 213.5t327 77q223 0 345 -123t124 -346q0 -82 -25 -166h-725q6 -168 74 -254t207 -86q98 0 180 36.5t176 108.5l90 -199q-102 -88 -207.5 -130t-238.5 -42q-197 0 -329 79t-196.5 213t-64.5 306zM412 743h428q2 10 2 29 q-2 92 -52.5 141.5t-132.5 49.5q-194 -1 -245 -220zM502 1276l199 434h335l-292 -434h-242z" />
<glyph unicode="&#xea;" horiz-adv-x="1230" d="M86 0zM86 571q0 176 65.5 312.5t197.5 213.5t327 77q223 0 345 -123t124 -346q0 -82 -25 -166h-725q6 -168 74 -254t207 -86q98 0 180 36.5t176 108.5l90 -199q-102 -88 -207.5 -130t-238.5 -42q-197 0 -329 79t-196.5 213t-64.5 306zM264 1276l231 430h310l233 -430 h-244l-143 240l-145 -240h-242zM412 743h428q2 10 2 29q-2 92 -52.5 141.5t-132.5 49.5q-194 -1 -245 -220z" />
<glyph unicode="&#xeb;" horiz-adv-x="1230" d="M86 0zM86 571q0 176 65.5 312.5t197.5 213.5t327 77q223 0 345 -123t124 -346q0 -82 -25 -166h-725q6 -168 74 -254t207 -86q98 0 180 36.5t176 108.5l90 -199q-102 -88 -207.5 -130t-238.5 -42q-197 0 -329 79t-196.5 213t-64.5 306zM233 1513q0 68 50.5 118t117.5 50 q68 0 118 -50t50 -118t-50 -117.5t-118 -49.5q-67 0 -117.5 50t-50.5 117zM412 743h428q2 10 2 29q-2 92 -52.5 141.5t-132.5 49.5q-194 -1 -245 -220zM733 1513q0 68 50 118t118 50t118 -50t50 -118t-50.5 -117.5t-117.5 -49.5q-68 0 -118 50t-50 117z" />
<glyph unicode="&#xec;" horiz-adv-x="661" d="M-57 1710h335l199 -434h-242zM0 0zM174 0v1147h313v-1147h-313z" />
<glyph unicode="&#xed;" horiz-adv-x="661" d="M174 0v1147h313v-1147h-313zM174 0zM182 1276l199 434h335l-292 -434h-242z" />
<glyph unicode="&#xee;" horiz-adv-x="661" d="M-55 1276l231 430h310l233 -430h-244l-143 240l-145 -240h-242zM0 0zM174 0v1147h313v-1147h-313z" />
<glyph unicode="&#xef;" horiz-adv-x="661" d="M-86 1513q0 68 50.5 118t117.5 50q68 0 118 -50t50 -118t-50 -117.5t-118 -49.5q-67 0 -117.5 50t-50.5 117zM0 0zM174 0v1147h313v-1147h-313zM414 1513q0 68 50 118t118 50t118 -50t50 -118t-50.5 -117.5t-117.5 -49.5q-68 0 -118 50t-50 117z" />
<glyph unicode="&#xf0;" horiz-adv-x="1404" d="M86 539q0 156 68.5 284.5t200.5 205.5t317 77q82 0 149 -21q-55 90 -147 177l-334 -144l-84 187l221 94q-106 59 -241 102l176 156q182 -49 333 -144l299 127l82 -184l-198 -86q162 -156 250 -357.5t88 -410.5q0 -188 -74 -331.5t-206 -221.5t-300 -78q-195 0 -330 78 t-202.5 207t-67.5 283zM403 539q0 -147 73 -243.5t210 -96.5q121 0 191.5 105.5t70.5 291.5q0 74 -8 131q-49 78 -118.5 115t-149.5 37q-127 0 -198 -94.5t-71 -245.5z" />
<glyph unicode="&#xf1;" horiz-adv-x="1366" d="M172 0v1147h234l34 -100q199 127 383 127q217 0 299 -114t82 -331v-729h-313v692q0 139 -36 194.5t-132 55.5q-115 0 -238 -86v-856h-313zM172 0zM297 1350q10 160 75.5 252t167.5 92q43 0 80 -16.5t82 -44.5q43 -27 68.5 -38t52.5 -11q31 0 52.5 29.5t35.5 96.5l172 -8 q-10 -150 -77.5 -247t-165.5 -97q-45 0 -82 15.5t-93 48.5q-39 25 -62.5 36t-45.5 11q-31 0 -52.5 -30t-35.5 -97z" />
<glyph unicode="&#xf2;" horiz-adv-x="1351" d="M86 0zM86 571q0 176 65.5 312.5t198.5 213.5t326 77t326 -82t199.5 -218.5t66.5 -298.5t-66.5 -299t-200 -220t-325.5 -83q-193 0 -326 78t-198.5 213t-65.5 307zM287 1710h335l199 -434h-242zM403 573q0 -375 275 -374q272 -1 272 374q0 373 -272 373q-274 0 -275 -373z " />
<glyph unicode="&#xf3;" horiz-adv-x="1351" d="M86 0zM86 571q0 176 65.5 312.5t198.5 213.5t326 77t326 -82t199.5 -218.5t66.5 -298.5t-66.5 -299t-200 -220t-325.5 -83q-193 0 -326 78t-198.5 213t-65.5 307zM403 573q0 -375 275 -374q272 -1 272 374q0 373 -272 373q-274 0 -275 -373zM526 1276l199 434h335 l-292 -434h-242z" />
<glyph unicode="&#xf4;" horiz-adv-x="1351" d="M86 0zM86 571q0 176 65.5 312.5t198.5 213.5t326 77t326 -82t199.5 -218.5t66.5 -298.5t-66.5 -299t-200 -220t-325.5 -83q-193 0 -326 78t-198.5 213t-65.5 307zM289 1276l231 430h310l233 -430h-244l-143 240l-145 -240h-242zM403 573q0 -375 275 -374q272 -1 272 374 q0 373 -272 373q-274 0 -275 -373z" />
<glyph unicode="&#xf5;" horiz-adv-x="1351" d="M86 0zM86 571q0 176 65.5 312.5t198.5 213.5t326 77t326 -82t199.5 -218.5t66.5 -298.5t-66.5 -299t-200 -220t-325.5 -83q-193 0 -326 78t-198.5 213t-65.5 307zM283 1350q10 160 75.5 252t167.5 92q43 0 80 -16.5t82 -44.5q43 -27 68.5 -38t52.5 -11q31 0 52.5 29.5 t35.5 96.5l172 -8q-10 -150 -77.5 -247t-165.5 -97q-45 0 -82 15.5t-93 48.5q-39 25 -62.5 36t-45.5 11q-31 0 -52.5 -30t-35.5 -97zM403 573q0 -375 275 -374q272 -1 272 374q0 373 -272 373q-274 0 -275 -373z" />
<glyph unicode="&#xf6;" horiz-adv-x="1351" d="M86 0zM86 571q0 176 65.5 312.5t198.5 213.5t326 77t326 -82t199.5 -218.5t66.5 -298.5t-66.5 -299t-200 -220t-325.5 -83q-193 0 -326 78t-198.5 213t-65.5 307zM258 1513q0 68 50.5 118t117.5 50q68 0 118 -50t50 -118t-50 -117.5t-118 -49.5q-67 0 -117.5 50 t-50.5 117zM403 573q0 -375 275 -374q272 -1 272 374q0 373 -272 373q-274 0 -275 -373zM758 1513q0 68 50 118t118 50t118 -50t50 -118t-50.5 -117.5t-117.5 -49.5q-68 0 -118 50t-50 117z" />
<glyph unicode="&#xf7;" d="M66 500v223h1169v-223h-1169zM457 195q0 80 56 136t136 56t136.5 -56.5t56.5 -135.5q0 -80 -56.5 -136.5t-136.5 -56.5t-136 56.5t-56 136.5zM457 1028q0 80 56 136.5t136 56.5t136.5 -56.5t56.5 -136.5t-56.5 -136t-136.5 -56t-136 56t-56 136z" />
<glyph unicode="&#xf8;" horiz-adv-x="1351" d="M86 571q0 176 65.5 312.5t198.5 213.5t326 77q160 0 282 -60l99 139l131 -86l-101 -141q89 -82 135 -199.5t46 -251.5q0 -162 -66.5 -299t-200 -220t-325.5 -83q-166 0 -295 62l-102 -146l-134 86l107 150q-82 80 -124 194.5t-42 251.5zM403 573q0 -118 27 -198l385 538 q-53 33 -137 33q-274 0 -275 -373zM526 240q63 -41 152 -41q272 -1 272 374q0 131 -32 215z" />
<glyph unicode="&#xf9;" horiz-adv-x="1366" d="M162 0zM162 416v731h313v-692q0 -141 36 -196.5t132 -55.5q115 0 240 88v856h313v-1147h-233l-35 98q-195 -125 -385 -125q-217 0 -299 114t-82 329zM285 1710h335l199 -434h-242z" />
<glyph unicode="&#xfa;" horiz-adv-x="1366" d="M162 0zM162 416v731h313v-692q0 -141 36 -196.5t132 -55.5q115 0 240 88v856h313v-1147h-233l-35 98q-195 -125 -385 -125q-217 0 -299 114t-82 329zM524 1276l199 434h335l-292 -434h-242z" />
<glyph unicode="&#xfb;" horiz-adv-x="1366" d="M162 0zM162 416v731h313v-692q0 -141 36 -196.5t132 -55.5q115 0 240 88v856h313v-1147h-233l-35 98q-195 -125 -385 -125q-217 0 -299 114t-82 329zM287 1276l231 430h310l233 -430h-244l-143 240l-145 -240h-242z" />
<glyph unicode="&#xfc;" horiz-adv-x="1366" d="M162 0zM162 416v731h313v-692q0 -141 36 -196.5t132 -55.5q115 0 240 88v856h313v-1147h-233l-35 98q-195 -125 -385 -125q-217 0 -299 114t-82 329zM256 1513q0 68 50.5 118t117.5 50q68 0 118 -50t50 -118t-50 -117.5t-118 -49.5q-67 0 -117.5 50t-50.5 117zM756 1513 q0 68 50 118t118 50t118 -50t50 -118t-50.5 -117.5t-117.5 -49.5q-68 0 -118 50t-50 117z" />
<glyph unicode="&#xfd;" horiz-adv-x="1251" d="M25 0zM25 -481l22 231q102 -31 176 -31q98 0 168 47.5t123 155.5l-473 1225h319l285 -844l275 844h315l-490 -1299q-70 -195 -191.5 -280.5t-295.5 -85.5q-57 0 -121.5 9t-111.5 28zM496 1276l199 434h335l-292 -434h-242z" />
<glyph unicode="&#xfe;" horiz-adv-x="1376" d="M172 -477v2115h313v-544q127 80 281 80t272.5 -68t185 -202t66.5 -324q0 -205 -75.5 -341.5t-200.5 -201t-279 -64.5q-129 0 -250 66v-516h-313zM485 260q98 -61 213 -61q142 0 208.5 96t66.5 285q0 199 -67.5 282.5t-174.5 83.5q-74 0 -131 -17.5t-115 -56.5v-612z" />
<glyph unicode="&#xff;" horiz-adv-x="1251" d="M25 0zM25 -481l22 231q102 -31 176 -31q98 0 168 47.5t123 155.5l-473 1225h319l285 -844l275 844h315l-490 -1299q-70 -195 -191.5 -280.5t-295.5 -85.5q-57 0 -121.5 9t-111.5 28zM227 1513q0 68 50.5 118t117.5 50q68 0 118 -50t50 -118t-50 -117.5t-118 -49.5 q-67 0 -117.5 50t-50.5 117zM727 1513q0 68 50 118t118 50t118 -50t50 -118t-50.5 -117.5t-117.5 -49.5q-68 0 -118 50t-50 117z" />
<glyph unicode="&#x152;" horiz-adv-x="2078" d="M98 694q0 203 83 361.5t246 248t394 89.5h1110v-228h-557v-315h475v-227h-475v-396h598v-227h-1151q-231 0 -394 90t-246 248t-83 356zM422 696q0 -211 105.5 -338t293.5 -127h230v930h-230q-188 0 -293.5 -126t-105.5 -339z" />
<glyph unicode="&#x153;" horiz-adv-x="2095" d="M86 571q0 176 67.5 312.5t199.5 213.5t323 77q262 0 424 -166q154 166 440 166q223 0 345 -123t124 -346q0 -82 -24 -166h-725q6 -168 73.5 -254t206.5 -86q96 0 178 36.5t178 108.5l91 -199q-104 -88 -209 -130t-238 -42q-285 0 -440 168q-162 -168 -424 -168 q-193 0 -326 78t-198.5 213t-65.5 307zM403 573q0 -375 275 -374q272 -1 272 374q0 373 -272 373q-274 0 -275 -373zM1276 743h428q2 10 2 29q-2 92 -52 141.5t-132 49.5q-195 -1 -246 -220z" />
<glyph unicode="&#x178;" horiz-adv-x="1394" d="M20 0zM20 1393h342l334 -600l338 600h338l-514 -830v-563h-323v557zM293 1683q0 63 45 109.5t108 46.5t109.5 -46t46.5 -110q0 -61 -46 -107t-110 -46q-63 0 -108 46t-45 107zM792 1683q0 63 45 109.5t109 46.5q63 0 109.5 -46t46.5 -110q0 -61 -46.5 -107t-109.5 -46 q-64 0 -109 46t-45 107z" />
<glyph unicode="&#x2c6;" horiz-adv-x="1024" d="M125 1208l231 430h310l233 -430h-244l-143 240l-145 -240h-242z" />
<glyph unicode="&#x2dc;" horiz-adv-x="1024" d="M119 1282q10 160 75.5 252t167.5 92q43 0 80 -16.5t82 -44.5q43 -27 68.5 -38t52.5 -11q31 0 52.5 29.5t35.5 96.5l172 -8q-10 -150 -77.5 -247t-165.5 -97q-45 0 -82 15.5t-93 48.5q-39 25 -62.5 36t-45.5 11q-31 0 -52.5 -30t-35.5 -97z" />
<glyph unicode="&#x2000;" horiz-adv-x="963" />
<glyph unicode="&#x2001;" horiz-adv-x="1927" />
<glyph unicode="&#x2002;" horiz-adv-x="963" />
<glyph unicode="&#x2003;" horiz-adv-x="1927" />
<glyph unicode="&#x2004;" horiz-adv-x="642" />
<glyph unicode="&#x2005;" horiz-adv-x="481" />
<glyph unicode="&#x2006;" horiz-adv-x="321" />
<glyph unicode="&#x2007;" horiz-adv-x="321" />
<glyph unicode="&#x2008;" horiz-adv-x="240" />
<glyph unicode="&#x2009;" horiz-adv-x="385" />
<glyph unicode="&#x200a;" horiz-adv-x="107" />
<glyph unicode="&#x2010;" horiz-adv-x="595" d="M41 477v223h514v-223h-514z" />
<glyph unicode="&#x2011;" horiz-adv-x="595" d="M41 477v223h514v-223h-514z" />
<glyph unicode="&#x2012;" horiz-adv-x="595" d="M41 477v223h514v-223h-514z" />
<glyph unicode="&#x2013;" horiz-adv-x="1024" d="M0 477v223h1024v-223h-1024z" />
<glyph unicode="&#x2014;" horiz-adv-x="2048" d="M256 477v223h1536v-223h-1536z" />
<glyph unicode="&#x2018;" horiz-adv-x="681" d="M166 1049q0 332 328 501l100 -129q-119 -90 -119 -282q0 -135 53 -273l-329 -45q-33 124 -33 228z" />
<glyph unicode="&#x2019;" horiz-adv-x="681" d="M88 950q119 90 119 285q0 133 -53 270l329 45q33 -123 33 -227q0 -332 -330 -502z" />
<glyph unicode="&#x201a;" horiz-adv-x="681" d="M88 0zM88 -240q119 90 119 283q0 133 -53 270l329 47q33 -123 33 -227q0 -176 -87 -299t-243 -205z" />
<glyph unicode="&#x201c;" horiz-adv-x="1241" d="M166 821zM166 1049q0 332 328 501l100 -129q-119 -90 -119 -282q0 -135 53 -273l-329 -45q-33 124 -33 228zM725 1049q0 332 328 501l100 -129q-119 -90 -119 -282q0 -135 53 -273l-329 -45q-33 124 -33 228z" />
<glyph unicode="&#x201d;" horiz-adv-x="1241" d="M88 821zM88 950q119 90 119 285q0 133 -53 270l329 45q33 -123 33 -227q0 -332 -330 -502zM647 950q119 90 119 285q0 133 -53 270l329 45q33 -123 33 -227q0 -332 -330 -502z" />
<glyph unicode="&#x201e;" horiz-adv-x="1241" d="M88 0zM88 -240q119 90 119 283q0 133 -53 270l329 47q33 -123 33 -227q0 -176 -87 -299t-243 -205zM647 -240q119 90 119 283q0 133 -53 270l329 47q33 -123 33 -227q0 -176 -87 -299t-243 -205z" />
<glyph unicode="&#x2022;" horiz-adv-x="1165" d="M279 582q0 82 40.5 152.5t110.5 111.5t152 41t152.5 -41t111.5 -111.5t41 -152.5t-41 -152t-111.5 -110.5t-152.5 -40.5t-152 40.5t-110.5 110.5t-40.5 152z" />
<glyph unicode="&#x2026;" horiz-adv-x="2011" d="M147 178q0 80 56.5 136.5t136.5 56.5t136 -56.5t56 -136.5t-56 -136t-136 -56t-136.5 56t-56.5 136zM813 178q0 80 56.5 136.5t136.5 56.5t136 -56.5t56 -136.5t-56.5 -136t-135.5 -56q-80 0 -136.5 56t-56.5 136zM1477 178q0 80 56 136.5t136 56.5t136.5 -56.5 t56.5 -136.5t-56.5 -136t-136.5 -56t-136 56t-56 136z" />
<glyph unicode="&#x202f;" horiz-adv-x="385" />
<glyph unicode="&#x2039;" horiz-adv-x="737" d="M98 530l324 433l221 -158l-209 -275l209 -274l-221 -158z" />
<glyph unicode="&#x203a;" horiz-adv-x="737" d="M94 256l209 274l-209 275l221 158l324 -433l-324 -432z" />
<glyph unicode="&#x205f;" horiz-adv-x="481" />
<glyph unicode="&#x20ac;" d="M129 428v225h154v54v43h-154v225h184q51 207 185.5 324.5t349.5 117.5q186 0 326 -90l-74 -221q-94 76 -201 76q-197 0 -260 -207h397v-225h-430v-43v-54h430v-225h-397q63 -219 260 -219q104 0 207 74l70 -215q-133 -94 -328 -95q-215 0 -349 122t-186 333h-184z" />
<glyph unicode="&#x2122;" horiz-adv-x="1847" d="M82 1280v145h586v-145h-181v-584h-223v584h-182zM782 696v729h232l178 -282l178 282h232v-729h-224v187l13 264l-134 -219h-133l-131 217l13 -262v-187h-224z" />
<glyph unicode="&#x25fc;" horiz-adv-x="1146" d="M0 0v1147h1147v-1147h-1147z" />
<glyph unicode="&#xfb03;" horiz-adv-x="2437" d="M53 0zM53 922v133l174 65v82q0 217 109.5 333t335.5 116q80 0 200 -17l-22 -221q-76 10 -127 10q-182 0 -182 -225v-51h327v-225h-327v-922h-314v922h-174zM940 922v133l174 65v82q0 217 109.5 333t335.5 116q80 0 200 -17l-22 -221q-76 10 -127 10q-182 0 -182 -225v-51 h327v-225h-327v-922h-314v922h-174zM1923 1530q0 76 53.5 129t129.5 53t130 -53t54 -129t-54 -129t-130 -53t-129.5 53t-53.5 129zM1950 0v1147h313v-1147h-313z" />
<glyph unicode="&#xfb04;" horiz-adv-x="2430" d="M53 0zM53 922v133l174 65v82q0 217 109.5 333t335.5 116q80 0 200 -17l-22 -221q-76 10 -127 10q-182 0 -182 -225v-51h327v-225h-327v-922h-314v922h-174zM940 922v133l174 65v82q0 217 109.5 333t335.5 116q80 0 200 -17l-22 -221q-76 10 -127 10q-182 0 -182 -225v-51 h327v-225h-327v-922h-314v922h-174zM1948 0v1638h313v-1638h-313z" />
</font>
</defs>
</svg>
